<svg width="25" height="24" viewBox="0 0 25 24" fill="none" xmlns="http://www.w3.org/2000/svg">
<rect x="0.579102" width="24" height="24" rx="5" fill="#4A7E58"/>
<g clip-path="url(#clip0)">
<path d="M17.6952 15.9659L14.639 11.2272V8.4371H14.8634C15.1273 8.4371 15.3412 8.21743 15.3412 7.94649V6.26331C15.3412 5.99238 15.1273 5.77271 14.8634 5.77271H10.2956C10.0317 5.77271 9.81776 5.99238 9.81776 6.26331V7.94649C9.81776 8.21743 10.0317 8.4371 10.2956 8.4371H10.52V11.2272L7.46376 15.9659C7.17478 16.414 7.14913 16.9864 7.39679 17.4598C7.64445 17.9332 8.12341 18.2273 8.64678 18.2273H16.5122C17.0356 18.2273 17.5146 17.9332 17.7622 17.4598C18.0099 16.9864 17.9843 16.414 17.6952 15.9659ZM10.7734 6.75392H14.3856V7.45589C14.0617 7.45589 11.1668 7.45589 10.7734 7.45589V6.75392ZM13.6834 8.4371V11.3749C13.6834 11.4713 13.711 11.5655 13.7628 11.6458L14.2487 12.3992H12.057L9.81925 15.8688C9.67358 16.0946 9.37722 16.1566 9.15708 16.007C8.93706 15.8573 8.87682 15.553 9.02249 15.3271L11.3962 11.6457C11.448 11.5654 11.4756 11.4712 11.4756 11.3749V8.4371H13.6834Z" fill="white"/>
</g>
<defs>
<clipPath id="clip0">
<rect width="13.1478" height="13.5" fill="white" transform="translate(6.00586 5.25)"/>
</clipPath>
</defs>
</svg>
