<svg width="25" height="24" viewBox="0 0 25 24" fill="none" xmlns="http://www.w3.org/2000/svg">
<rect x="0.913086" width="24" height="24" rx="5" fill="#5D358B"/>
<circle cx="12.9131" cy="12" r="7" fill="white"/>
<path d="M12.4425 8C11.3013 8 10.7131 8.07843 9.97191 8.2577L10.1249 9.53501C10.8896 9.5014 11.419 9.47899 12.4425 9.47899C13.5249 9.47899 13.9484 9.89356 14.0425 11.2381H10.7484V12.4258H14.066C14.019 14.0392 13.6072 14.521 12.4425 14.521C11.3837 14.521 10.7601 14.4986 10.066 14.409L9.91309 15.6863C10.6425 15.9104 11.3013 16 12.4425 16C14.9954 16 15.9131 14.9468 15.9131 12C15.9131 9.05322 14.9954 8 12.4425 8Z" fill="#5D358B"/>
</svg>
