<svg width="25" height="24" viewBox="0 0 25 24" fill="none" xmlns="http://www.w3.org/2000/svg">
<rect x="0.883789" width="24" height="24" rx="5" fill="#ED5F93"/>
<path d="M12.9107 10.9149L12.4907 9.4099C12.3787 8.9129 12.0497 8.7379 11.8047 8.6819V8.6469C12.4907 8.5629 12.7287 8.1289 12.7287 7.4499C12.7287 6.3439 12.2037 6.0219 10.9437 6.0219C10.0757 6.0219 9.68366 6.0289 9.10266 6.0849V10.9149H10.1527V9.0319H10.9017C11.1887 9.0319 11.3287 9.1299 11.4197 9.4379L11.7837 10.9149H12.9107ZM10.1527 8.2059V6.8479L10.9227 6.8409C11.4827 6.8409 11.6507 6.9809 11.6507 7.5199C11.6507 8.0519 11.4827 8.2059 10.9227 8.2059H10.1527Z" fill="white"/>
<path d="M15.1687 5.9939C13.9227 5.9939 13.4117 6.2249 13.4117 7.3309C13.4117 8.0449 13.6777 8.4789 14.4127 8.7449L15.3857 9.0879C15.7077 9.1929 15.8407 9.2769 15.8407 9.6199C15.8407 10.0119 15.6867 10.0889 15.1267 10.0889C14.8187 10.0889 14.4267 10.0749 13.5307 10.0539L13.4677 10.8239C14.2097 10.9849 14.8187 11.0059 15.1267 11.0059C16.4427 11.0059 16.9187 10.7119 16.9187 9.6129C16.9187 8.9059 16.6667 8.4649 15.8967 8.1919L14.9797 7.8769C14.6157 7.7579 14.4757 7.6669 14.4757 7.3309C14.4757 6.9179 14.6577 6.8899 15.1757 6.8899C15.6867 6.8899 16.2817 6.8969 16.6877 6.9109L16.7577 6.1829C16.2187 6.0289 15.6447 5.9939 15.1687 5.9939Z" fill="white"/>
<path d="M10.814 16.0949H10.212V14.0229H9.39997L9.22497 14.7929V16.0949H8.05597C7.92297 16.0949 7.84597 16.0179 7.91597 15.8639L9.06397 13.0849H8.05597L6.80297 16.0669C6.64197 16.4589 6.89397 16.8509 7.31397 16.8509H9.22497V17.9149H10.212V16.8509H10.226L10.814 16.7529V16.0949Z" fill="white"/>
<path d="M13.1992 13.0009C11.8342 13.0009 11.5192 13.3929 11.5192 14.2889C11.5192 14.8489 11.7222 15.3389 12.2332 15.3949V15.4229C11.5752 15.4859 11.4002 16.0249 11.4002 16.7109C11.4002 17.6139 11.7642 18.0129 13.1992 18.0059C14.6482 17.9919 14.9912 17.6139 14.9912 16.7109C14.9912 16.0249 14.8232 15.4859 14.1652 15.4229V15.3949C14.6692 15.3389 14.8792 14.8489 14.8792 14.2889C14.8792 13.3929 14.5712 13.0009 13.1992 13.0009ZM13.2062 13.7639C13.7872 13.7639 13.9132 13.8969 13.9132 14.4149C13.9132 14.9049 13.8082 15.0379 13.2132 15.0379C12.6182 15.0379 12.4782 14.9119 12.4782 14.4149C12.4782 13.8969 12.6112 13.7639 13.2062 13.7639ZM13.2132 15.7799C13.8432 15.7799 13.9832 15.9199 13.9832 16.4939C13.9832 17.0329 13.8432 17.1799 13.2062 17.1799C12.5552 17.1799 12.4012 17.0329 12.4012 16.4939C12.4012 15.9339 12.5482 15.7799 13.2132 15.7799Z" fill="white"/>
<path d="M18.7442 13.9109L18.7792 13.0849H15.9372L15.8182 15.2059C15.8042 15.4159 15.9512 15.5769 16.1542 15.5979L16.7422 15.6679C17.5962 15.7449 17.8972 15.8009 17.8692 16.4169C17.8552 16.8929 17.7011 17.1029 16.9732 17.1029C16.6371 17.1029 16.1822 17.0679 15.7272 17.0189L15.6292 17.8449C16.2102 17.9429 16.7982 17.9989 17.2392 17.9989C18.5902 17.9989 18.9262 17.2639 18.9262 16.4379C18.9262 15.5699 18.5692 14.9959 17.4002 14.8699L16.7072 14.7859L16.7632 13.9109H18.7442Z" fill="white"/>
</svg>
