<svg width="25" height="24" viewBox="0 0 25 24" fill="none" xmlns="http://www.w3.org/2000/svg">
<rect x="0.913086" width="24" height="24" rx="5" fill="#31539E"/>
<g clip-path="url(#clip0)">
<path d="M18.4734 6.85531L13.0297 5.26669C12.9535 5.24444 12.8723 5.24444 12.796 5.26669L7.35224 6.85531C7.18028 6.90549 7.0625 7.05947 7.0625 7.23413V13.0591C7.0625 13.8167 7.37782 14.5923 7.99966 15.3642C8.47459 15.9538 9.13166 16.5458 9.95257 17.1239C11.3316 18.0949 12.6896 18.6906 12.7468 18.7155C12.7996 18.7385 12.8562 18.75 12.9129 18.75C12.9695 18.75 13.0262 18.7385 13.079 18.7155C13.1361 18.6906 14.4941 18.0949 15.8732 17.1239C16.6941 16.5458 17.3511 15.9538 17.8261 15.3642C18.4479 14.5923 18.7632 13.8167 18.7632 13.0591V7.23413C18.7632 7.05947 18.6455 6.90549 18.4734 6.85531Z" fill="white"/>
</g>
<path d="M12.0338 10.9205V9.08677H15.3755L15.507 7.77052C14.6633 7.72552 13.8197 7.69177 12.9322 7.69177C12.0995 7.69177 11.2339 7.71427 10.3574 7.77052V15.533H10.4012C11.3326 15.6118 12.1872 15.6343 13.1732 15.6343C15.0468 15.6343 15.9781 15.3193 15.9781 13.283C15.9781 11.483 15.2659 10.9205 13.1842 10.9205H12.0338ZM12.0338 14.318V12.0905H13.1842C14.1265 12.0905 14.3018 12.3493 14.3018 13.2155C14.3018 14.1155 14.1155 14.318 13.1842 14.318H12.0338Z" fill="#31539E"/>
<defs>
<clipPath id="clip0">
<rect width="13.8783" height="13.5" fill="white" transform="translate(5.97363 5.25)"/>
</clipPath>
</defs>
</svg>
