<svg width="25" height="24" viewBox="0 0 25 24" fill="none" xmlns="http://www.w3.org/2000/svg">
<rect x="0.913086" width="24" height="24" rx="5" fill="#4EA5DB"/>
<g clip-path="url(#clip0)">
<path d="M8.68295 12.7939L8.19623 14.6104L8.07411 14.6809L7.11763 14.4246L6.90533 15.2169L7.62991 15.4111L7.43566 16.1357L8.22795 16.348L8.48429 15.3915L8.60652 15.3209L10.4229 15.8077L10.9097 13.9912L12.3109 13.1821C12.4237 13.2783 12.5525 13.3542 12.6948 13.4049V15.0218L11.365 16.3516L12.6948 17.6814V17.9699L11.9947 18.67L12.5746 19.25L13.1049 18.7197L13.6353 19.25L14.2153 18.67L13.5151 17.9699V17.6814L14.8449 16.3516L13.5151 15.0218V13.4049C13.6575 13.3541 13.7862 13.2783 13.899 13.1821L15.3003 13.9912L15.787 15.8076L17.6034 15.3209L17.7257 15.3915L17.982 16.348L18.7743 16.1357L18.58 15.4111L19.3046 15.2168L19.0923 14.4245L18.1358 14.6809L18.0137 14.6104L17.527 12.7939L15.7105 13.2806L14.3129 12.4736C14.3263 12.4009 14.3354 12.3266 14.3354 12.25C14.3354 12.1734 14.3263 12.0991 14.3128 12.0264L15.7105 11.2194L17.527 11.7061L18.0137 9.88961L18.1358 9.81911L19.0923 10.0755L19.3046 9.28318L18.58 9.08893L18.7742 8.36434L17.982 8.15205L17.7256 9.10853L17.6034 9.17908L15.787 8.69236L15.3002 10.5088L13.899 11.3179C13.7862 11.2217 13.6574 11.1459 13.5151 11.0951V9.47825L14.8449 8.14844L13.5151 6.81863V6.53013L14.2152 5.82999L13.6353 5.25L13.1049 5.78033L12.5746 5.25L11.9946 5.82999L12.6948 6.53013V6.81863L11.365 8.14844L12.6948 9.47825V11.0951C12.5524 11.1459 12.4237 11.2217 12.3109 11.3179L10.9096 10.5088L10.4229 8.69236L8.60647 9.17908L8.48424 9.10853L8.22789 8.15205L7.43561 8.36434L7.62986 9.08893L6.90527 9.28318L7.11757 10.0755L8.07405 9.81911L8.19617 9.88961L8.68289 11.7061L10.4994 11.2194L11.897 12.0264C11.8836 12.0991 11.8745 12.1734 11.8745 12.25C11.8745 12.3266 11.8836 12.4009 11.8971 12.4736L10.4994 13.2806L8.68295 12.7939Z" fill="white"/>
</g>
<defs>
<clipPath id="clip0">
<rect width="14" height="14" fill="white" transform="translate(6.10449 5.25)"/>
</clipPath>
</defs>
</svg>
