<svg width="26" height="24" viewBox="0 0 26 24" fill="none" xmlns="http://www.w3.org/2000/svg">
<rect x="1.04395" width="24" height="24" rx="5" fill="#E84846"/>
<g clip-path="url(#clip0)">
<path d="M18.1205 13.1541C17.9645 11.1407 17.0189 9.87899 16.1848 8.76561C15.4123 7.73487 14.7452 6.84476 14.7452 5.53173C14.7452 5.42626 14.6856 5.32986 14.5912 5.28153C14.4964 5.23291 14.3825 5.24088 14.2964 5.30294C13.0436 6.19168 11.9983 7.68957 11.6332 9.11878C11.3797 10.1138 11.3461 11.2324 11.3414 11.9712C10.1845 11.7262 9.9224 10.0105 9.91964 9.99185C9.9066 9.90286 9.85176 9.82542 9.77197 9.78312C9.69136 9.74138 9.5966 9.73835 9.51486 9.77846C9.4542 9.80757 8.02573 10.5271 7.94261 13.4001C7.93679 13.4957 7.93652 13.5916 7.93652 13.6874C7.93652 16.4786 10.2274 18.7496 13.043 18.7496C13.0469 18.7498 13.0511 18.7504 13.0544 18.7496C13.0555 18.7496 13.0566 18.7496 13.058 18.7496C15.8667 18.7416 18.1496 16.4736 18.1496 13.6874C18.1496 13.5471 18.1205 13.1541 18.1205 13.1541ZM13.043 18.1871C12.1044 18.1871 11.3409 17.3808 11.3409 16.3896C11.3409 16.3558 11.3406 16.3218 11.3431 16.28C11.3544 15.862 11.4345 15.5767 11.5223 15.3869C11.6869 15.7373 11.9811 16.0595 12.459 16.0595C12.6159 16.0595 12.7427 15.9337 12.7427 15.7783C12.7427 15.3778 12.7511 14.9159 12.8516 14.499C12.9411 14.1293 13.155 13.736 13.426 13.4207C13.5465 13.83 13.7814 14.1612 14.0108 14.4844C14.3391 14.9469 14.6785 15.4251 14.7381 16.2405C14.7417 16.2888 14.7453 16.3374 14.7453 16.3896C14.7452 17.3807 13.9817 18.1871 13.043 18.1871Z" fill="white"/>
</g>
<defs>
<clipPath id="clip0">
<rect width="13.6174" height="13.5" fill="white" transform="translate(6.23438 5.25)"/>
</clipPath>
</defs>
</svg>
