<svg width="25" height="24" viewBox="0 0 25 24" fill="none" xmlns="http://www.w3.org/2000/svg">
<rect x="0.913086" width="24" height="24" rx="5" fill="#E62B26"/>
<path d="M9.05504 8.11878H7.38965V14.2613C7.38965 15.2175 7.9046 15.915 9.12078 15.915C10.1945 15.915 11.3121 15.9038 12.3201 15.7913L12.2434 14.4863H9.64669C9.21939 14.4863 9.05504 14.3175 9.05504 13.9125V8.11878Z" fill="white"/>
<path d="M15.6972 7.97253C13.7469 7.97253 12.9471 8.34378 12.9471 10.1213C12.9471 11.2688 13.3634 11.9663 14.5139 12.3938L16.0368 12.945C16.5408 13.1138 16.749 13.2488 16.749 13.8C16.749 14.43 16.508 14.5538 15.6314 14.5538C15.1493 14.5538 14.5358 14.5313 13.1333 14.4975L13.0347 15.735C14.1961 15.9938 15.1493 16.0275 15.6314 16.0275C17.6913 16.0275 18.4363 15.555 18.4363 13.7888C18.4363 12.6525 18.0419 11.9438 16.8367 11.505L15.4013 10.9988C14.8316 10.8075 14.6125 10.6613 14.6125 10.1213C14.6125 9.45753 14.8973 9.41253 15.7081 9.41253C16.508 9.41253 17.4393 9.42379 18.0747 9.44628L18.1843 8.27628C17.3407 8.02878 16.4422 7.97253 15.6972 7.97253Z" fill="white"/>
</svg>
