<svg width="212" height="40" viewBox="0 0 212 40" fill="none" xmlns="http://www.w3.org/2000/svg">
<path d="M70.3503 29.2531L78.6168 10.2317H73.2279L70.0068 18.3303L66.8086 10.2317H61.2747L67.381 23.849L64.9232 29.2531H70.3121H70.3503ZM95.9971 10.2317H91.0509V16.9717H85.4789V10.2317H80.5251V29.2531H85.4789V21.6965H91.0509V29.2531H95.9971V10.2317ZM99.9205 29.2531H104.874V10.2317H99.9586L99.9205 29.2531ZM116.858 29.2531L110.897 21.208C110.462 20.7319 110.18 20.1362 110.088 19.4982C110.165 18.9769 110.387 18.4877 110.729 18.0861L116.072 10.2317H110.202L106.08 17.4067C105.681 18.0456 105.441 18.7705 105.378 19.5211C105.473 20.3733 105.783 21.1875 106.279 21.8873L110.92 29.2531H116.858ZM126.59 10.0104C124.3 10.0104 121.529 10.0943 119.888 11.9721C118.247 13.8498 118.156 17.1854 118.156 19.7424C118.156 22.2995 118.217 25.5817 119.888 27.5128C121.56 29.444 124.308 29.4745 126.59 29.4745C128.872 29.4745 131.674 29.3982 133.3 27.5128C134.925 25.6275 135.025 22.2461 135.025 19.7424C135.025 17.2388 134.964 13.8727 133.3 11.9721C131.636 10.0714 128.949 10.0104 126.628 10.0104H126.59ZM123.277 19.7501C123.277 18.17 123.277 17.1396 123.85 16.1397C124.499 14.8802 125.377 14.7505 126.628 14.7505C127.88 14.7505 128.735 14.8802 129.414 16.1397C130.002 17.193 129.979 18.0937 129.979 19.7501C129.979 21.2767 129.979 22.33 129.414 23.3681C128.735 24.6123 127.888 24.7497 126.628 24.7497C125.369 24.7497 124.499 24.6123 123.85 23.3681C123.368 22.2264 123.172 20.9847 123.277 19.7501ZM154.061 17.735C154.199 17.2236 154.283 17.0556 154.374 17.0556C154.466 17.0556 154.573 17.1701 154.573 17.6815L154.397 29.2608H159.389V13.3536C159.389 12.1858 159.107 10.0104 155.618 10.0104C154.306 10.0104 152.466 10.2012 151.68 13.1628L149.199 22.4063C149.153 22.5972 148.917 23.2765 148.741 23.2765C148.566 23.2765 148.321 22.5972 148.283 22.4063L145.802 13.1628C145.039 10.2012 143.177 10.0104 141.879 10.0104C141.116 10.0104 138.108 10.0104 138.108 13.3536V29.2531H143.085L142.932 17.6739C142.932 17.4831 142.932 17.048 143.108 17.048C143.283 17.048 143.329 17.3762 143.413 17.7273L145.779 26.8869C146.131 28.2685 146.543 29.444 148.741 29.444C150.939 29.444 151.352 28.2685 151.703 26.8869L154.061 17.735ZM171.991 29.2608V14.9566H177.472V10.2317H161.557V14.9566H167.037V29.2531L171.991 29.2608ZM193.249 29.2608V24.6352H185.753C185.589 24.6626 185.42 24.6551 185.258 24.613C185.096 24.5709 184.945 24.4953 184.815 24.3909C184.732 24.2934 184.67 24.1804 184.632 24.0584C184.594 23.9365 184.581 23.8082 184.593 23.6811V21.6125H192.99V17.4602H184.593V16.0481C184.558 15.7183 184.645 15.387 184.837 15.1168C185.047 14.9312 185.321 14.8353 185.601 14.8497H193.18V10.2699H182.166C181.818 10.2513 181.471 10.3101 181.149 10.4421C180.827 10.5742 180.538 10.776 180.303 11.0332C179.818 11.6467 179.584 12.4214 179.647 13.201V26.2076C179.589 26.634 179.621 27.068 179.742 27.481C179.863 27.8941 180.07 28.2769 180.349 28.6043C180.594 28.8409 180.888 29.0215 181.209 29.1335C181.531 29.2455 181.873 29.2863 182.212 29.2531L193.249 29.2608ZM211.942 29.2608L206.134 19.605L211.767 10.2317H205.828L203.218 15.3153L200.607 10.2317H194.692L200.325 19.605L194.516 29.2531H200.485L203.264 23.91L206.05 29.2531L211.942 29.2608Z" fill="#0071BC"/>
<path fill-rule="evenodd" clip-rule="evenodd" d="M0.194336 10.4137H3.90038L3.90038 33.024C3.90038 36.8768 7.02361 40 10.8763 40H17.3156L30.7309 40H37.1702C41.023 40 44.1462 36.8768 44.1462 33.024L44.1462 10.4137L47.8522 10.4137L37.4386 0L27.0249 10.4137H30.7309L30.7309 26.5847L30.7309 26.6106L34.437 26.6106L24.0233 37.0243L13.6096 26.6106H17.3156L17.3157 26.5847V10.4137L21.0217 10.4137L10.608 0L0.194336 10.4137Z" fill="#ED1C24"/>
</svg>
