<svg width="200" height="38" viewBox="0 0 200 38" fill="none" xmlns="http://www.w3.org/2000/svg">
<path d="M66.2301 27.7514L74.0112 9.84703H68.9388L65.9068 17.47L62.8964 9.84703H57.6875L63.4353 22.6646L61.1218 27.7514H66.1942H66.2301ZM90.3708 9.84703H85.7151V16.1911H80.4703V9.84703H75.8074V27.7514H80.4703V20.6385H85.7151V27.7514H90.3708V9.84703ZM94.0637 27.7514H98.7266V9.84703H94.0997L94.0637 27.7514ZM110.007 27.7514L104.395 20.1787C103.986 19.7305 103.721 19.1699 103.634 18.5693C103.707 18.0786 103.916 17.6182 104.237 17.2401L109.267 9.84703H103.742L99.8618 16.6007C99.4863 17.202 99.2596 17.8843 99.2008 18.5908C99.2904 19.393 99.5822 20.1594 100.049 20.8181L104.417 27.7514H110.007ZM119.167 9.63867C117.012 9.63867 114.404 9.7177 112.859 11.4851C111.314 13.2526 111.228 16.3923 111.228 18.7992C111.228 21.2061 111.286 24.2955 112.859 26.1132C114.432 27.931 117.019 27.9597 119.167 27.9597C121.315 27.9597 123.952 27.8879 125.483 26.1132C127.013 24.3386 127.106 21.1558 127.106 18.7992C127.106 16.4426 127.049 13.2741 125.483 11.4851C123.916 9.69615 121.387 9.63867 119.203 9.63867H119.167ZM116.049 18.8064C116.049 17.3191 116.049 16.3492 116.588 15.408C117.199 14.2225 118.025 14.1004 119.203 14.1004C120.381 14.1004 121.186 14.2225 121.826 15.408C122.379 16.3995 122.357 17.2473 122.357 18.8064C122.357 20.2433 122.357 21.2348 121.826 22.2119C121.186 23.383 120.389 23.5124 119.203 23.5124C118.018 23.5124 117.199 23.383 116.588 22.2119C116.134 21.1373 115.95 19.9685 116.049 18.8064ZM145.025 16.9096C145.154 16.4282 145.233 16.2702 145.32 16.2702C145.406 16.2702 145.506 16.3779 145.506 16.8593L145.341 27.7585H150.04V12.7856C150.04 11.6863 149.774 9.63867 146.491 9.63867C145.255 9.63867 143.523 9.81829 142.783 12.606L140.448 21.3067C140.405 21.4863 140.182 22.1257 140.017 22.1257C139.852 22.1257 139.622 21.4863 139.586 21.3067L137.251 12.606C136.533 9.81829 134.78 9.63867 133.558 9.63867C132.84 9.63867 130.009 9.63867 130.009 12.7856V27.7514H134.693L134.55 16.8521C134.55 16.6725 134.55 16.263 134.715 16.263C134.88 16.263 134.923 16.5719 135.002 16.9024L137.23 25.5241C137.56 26.8245 137.948 27.931 140.017 27.931C142.086 27.931 142.474 26.8245 142.805 25.5241L145.025 16.9096ZM161.902 27.7585V14.2944H167.061V9.84703H152.08V14.2944H157.239V27.7514L161.902 27.7585ZM181.911 27.7585V23.4046H174.856C174.701 23.4304 174.542 23.4233 174.39 23.3837C174.237 23.3441 174.095 23.2729 173.972 23.1747C173.895 23.0829 173.836 22.9765 173.8 22.8617C173.764 22.747 173.752 22.6262 173.764 22.5065V20.5595H181.667V16.651H173.764V15.3218C173.731 15.0113 173.813 14.6996 173.994 14.4453C174.191 14.2705 174.449 14.1803 174.712 14.1938H181.847V9.88295H171.479C171.152 9.86546 170.825 9.92084 170.522 10.0451C170.219 10.1693 169.947 10.3594 169.726 10.6014C169.269 11.1789 169.049 11.9081 169.108 12.6419V24.8847C169.053 25.286 169.084 25.6945 169.197 26.0833C169.311 26.4721 169.506 26.8325 169.769 27.1407C170 27.3633 170.276 27.5333 170.579 27.6387C170.881 27.7442 171.203 27.7826 171.522 27.7514L181.911 27.7585ZM199.507 27.7585L194.039 18.6699L199.341 9.84703H193.752L191.295 14.6321L188.837 9.84703H183.269L188.572 18.6699L183.104 27.7514H188.722L191.338 22.7221L193.96 27.7514L199.507 27.7585Z" fill="#858585"/>
<path fill-rule="evenodd" clip-rule="evenodd" d="M0.194336 10.0184H3.68273L3.68273 31.3009C3.68273 34.9274 6.62255 37.8672 10.249 37.8672H16.3102L28.9376 37.8672H34.9988C38.6252 37.8672 41.565 34.9274 41.565 31.3009L41.565 10.0184L45.0534 10.0184L35.2513 0.216309L25.4492 10.0184H28.9376L28.9376 25.2398L28.9376 25.2642L32.426 25.2642L22.6239 35.0663L12.8218 25.2642H16.3102L16.3102 25.2398V10.0184L19.7986 10.0184L9.99645 0.216309L0.194336 10.0184Z" fill="#858585"/>
</svg>
