<svg width="32" height="32" viewBox="0 0 32 32" fill="none" xmlns="http://www.w3.org/2000/svg">
<g clip-path="url(#clip0)">
<path d="M7.35803 9.63608V17.4298H1.2356V11.8201C1.2356 10.6141 2.2136 9.63608 3.4196 9.63608H4.53603H7.35803Z" fill="#BED8FB"/>
<path d="M30.7638 12.283V29.4323C30.7638 30.8507 29.6145 32.0001 28.1967 32.0001H7.10375C5.892 32.0001 4.87662 31.1604 4.60681 30.0311L4.5965 28.5631L4.53662 19.8207V2.56775C4.53668 1.14931 5.686 0 7.10375 0H18.4808C19.5032 0 22.8146 2.82331 25.7416 5.79669C28.4124 8.51056 30.7638 11.3494 30.7638 12.283Z" fill="#DDEAFB"/>
<path d="M30.764 12.283V18.5652C30.764 18.5581 30.7634 18.551 30.7634 18.5433C30.5702 10.835 24.2913 10.4783 22.238 8.42497L25.7419 5.79672C28.4127 8.51054 30.764 11.3493 30.764 12.283Z" fill="#CBE2FF"/>
<path d="M18.4807 0H12.1985C12.2055 0 12.2127 0.000625 12.2204 0.000625C19.9287 0.193813 20.2854 6.47275 22.3387 8.526L24.9669 5.02212C22.2531 2.35137 19.4142 0 18.4807 0Z" fill="#CBE2FF"/>
<path d="M30.764 12.2833V13.3694C30.764 11.0828 28.9097 9.22856 26.6232 9.22856H24.1029C22.6852 9.22856 21.5353 8.07875 21.5353 6.661V4.14081C21.5353 1.85419 19.6812 0 17.3945 0H18.4806C20.4362 0 22.3123 0.777063 23.6952 2.15981L28.6041 7.06875C29.9869 8.45156 30.764 10.3277 30.764 12.2833Z" fill="#BED8FB"/>
<path d="M21.919 19.4318V25.1905C21.919 27.0532 20.4091 28.5631 18.5464 28.5631H4.5965L4.53662 19.8207V16.0593H18.5464C20.4091 16.0593 21.919 17.5691 21.919 19.4318Z" fill="#CBE2FF"/>
<path d="M24.1028 17.3766V23.1353C24.1028 24.9979 22.593 26.5078 20.7303 26.5078H3.42002C3.35502 26.5078 3.29127 26.5053 3.22752 26.4988C2.11171 26.4023 1.23608 25.4654 1.23608 24.3238V11.8201C1.23608 12.4228 1.48077 12.9687 1.87608 13.3641C2.22827 13.7169 2.7009 13.95 3.22752 13.9951C3.29127 14.0015 3.35502 14.0041 3.42002 14.0041H20.7303C22.593 14.004 24.1028 15.5139 24.1028 17.3766Z" fill="#DD636E"/>
<path d="M3.22752 13.995V26.4988C2.11171 26.4023 1.23608 25.4654 1.23608 24.3238V11.8201C1.23608 12.4228 1.48077 12.9687 1.87608 13.3641C2.22827 13.7169 2.70083 13.9499 3.22752 13.995Z" fill="#DA4A54"/>
<path d="M20.2015 17.6594C20.4683 17.6594 20.6844 17.4432 20.6844 17.1765C20.6844 16.9099 20.4682 16.6937 20.2015 16.6937H17.7119C17.4451 16.6937 17.229 16.9099 17.229 17.1765V23.3193C17.229 23.586 17.4452 23.8022 17.7119 23.8022C17.9786 23.8022 18.1948 23.586 18.1948 23.3193V20.6727H20.0038C20.2705 20.6727 20.4866 20.4565 20.4866 20.1898C20.4866 19.9231 20.2704 19.7069 20.0038 19.7069H18.1948V17.6595H20.2015V17.6594Z" fill="white"/>
<path d="M13.1195 16.6937H11.3797C11.2515 16.6937 11.1285 16.7447 11.0379 16.8354C10.9473 16.9262 10.8965 17.0492 10.8967 17.1775V17.1828V17.183V23.2196C10.8967 23.2572 10.9015 23.2937 10.9096 23.3288C10.912 23.4541 10.9629 23.5737 11.0519 23.6621C11.1424 23.7519 11.2646 23.8023 11.3921 23.8023H11.3939C11.4464 23.8021 12.685 23.7974 13.1787 23.7887C14.0357 23.7737 14.7987 23.3855 15.3274 22.6955C15.8145 22.0597 16.0829 21.1904 16.0829 20.248C16.083 18.122 14.892 16.6937 13.1195 16.6937ZM13.162 22.823C12.8684 22.8281 12.2896 22.8319 11.8734 22.8342C11.871 22.1296 11.867 20.8399 11.867 20.2412C11.867 19.7403 11.8648 18.3895 11.8635 17.6595H13.1195C14.0853 17.6595 15.1172 18.3395 15.1172 20.248C15.1172 21.7439 14.3132 22.8029 13.162 22.823Z" fill="white"/>
<path d="M7.84485 16.6484H6.12185C5.99354 16.6484 5.87048 16.6994 5.77985 16.7904C5.68985 16.8806 5.63942 17.0028 5.63904 17.1303C5.63904 17.1306 5.63892 17.1309 5.63892 17.1313V23.3194C5.63892 23.5861 5.8551 23.8023 6.12179 23.8023C6.38854 23.8023 6.60467 23.5861 6.60467 23.3194V21.1118C7.00542 21.1096 7.56123 21.1068 7.84479 21.1068C9.09279 21.1068 10.1081 20.1068 10.1081 18.8776C10.1081 17.6484 9.09286 16.6484 7.84485 16.6484ZM7.84485 20.1409C7.56285 20.1409 7.01473 20.1436 6.61398 20.1458C6.61179 19.7343 6.60904 19.1653 6.60904 18.8775C6.60904 18.6348 6.60748 18.0421 6.60623 17.6141H7.84492C8.54829 17.6141 9.14248 18.1927 9.14248 18.8775C9.14248 19.5623 8.54823 20.1409 7.84485 20.1409Z" fill="white"/>
</g>
<defs>
<clipPath id="clip0">
<rect width="32" height="32" fill="white" transform="translate(-0.000244141)"/>
</clipPath>
</defs>
</svg>
