<svg width="105" height="120" viewBox="0 0 105 120" fill="none" xmlns="http://www.w3.org/2000/svg">
<g opacity="0.1" clip-path="url(#clip0)">
<path d="M120.231 37.2026C119.374 36.1219 118.087 35.502 116.701 35.502H107.824L112.489 16.4229C112.84 14.9845 112.513 13.4923 111.59 12.3288C110.668 11.1654 109.282 10.4981 107.79 10.4981H90.9727V6.48915H93.2679C94.2707 6.48915 95.0834 5.6829 95.0834 4.68868C95.0834 3.69446 94.2707 2.88821 93.2679 2.88821H85.0465C84.0438 2.88821 83.2311 3.69446 83.2311 4.68868C83.2311 5.6829 84.0438 6.48915 85.0465 6.48915H87.3415V10.4979H69.7022C68.2098 10.4979 66.8245 11.1652 65.9018 12.3286C64.9792 13.492 64.6516 14.9843 65.0033 16.4227L69.668 35.5017H60.77C59.3834 35.5017 58.0964 36.1217 57.2392 37.2026C56.3823 38.2835 56.0779 39.6696 56.4047 41.0058L61.2202 60.7022C61.6751 62.5631 63.2552 63.9012 65.1434 64.0838V74.0951H15.5713C13.7818 74.0951 12.0382 74.8231 10.788 76.0927L0.711186 86.3243C0.383871 86.6562 0.194336 87.1186 0.194336 87.5824V108.619C0.194336 113.897 4.52481 118.192 9.84787 118.192H107C110.101 118.192 112.623 115.691 112.623 112.616V96.728C112.623 95.7335 111.81 94.9275 110.807 94.9275C109.805 94.9275 108.992 95.7338 108.992 96.728V112.616C108.992 113.705 108.098 114.591 107 114.591H99.4685V100.991C99.4685 98.1495 97.1378 95.8381 94.273 95.8381H83.2195C80.3547 95.8381 78.024 98.1495 78.024 100.991V114.591H68.7749V64.1072H108.992V88.4574C108.992 89.4518 109.804 90.2578 110.807 90.2578C111.81 90.2578 112.622 89.4516 112.622 88.4574V64.0467C114.379 63.7601 115.819 62.4656 116.25 60.7027L121.066 41.0063C121.393 39.6696 121.088 38.2833 120.231 37.2026ZM81.6552 100.991C81.6552 100.135 82.3569 99.439 83.2195 99.439H94.273C95.1356 99.439 95.8373 100.135 95.8373 100.991V114.591H81.6552V100.991ZM68.5324 15.5745C68.4126 15.0842 68.621 14.7253 68.756 14.5552C68.8909 14.3848 69.1936 14.0993 69.7022 14.0993H107.79C108.299 14.0993 108.601 14.3848 108.736 14.5552C108.871 14.7253 109.08 15.0842 108.96 15.5745L104.088 35.5022H73.4045L68.5324 15.5745ZM13.3855 78.6091C13.9569 78.0291 14.7536 77.6963 15.5713 77.6963H65.1437V85.7817H6.32114L13.3855 78.6091ZM3.82552 108.619V89.3829H65.1439V114.591H59.4576V100.99C59.4576 98.1492 57.127 95.8378 54.262 95.8378H43.2087C40.3439 95.8378 38.0132 98.1492 38.0132 100.99V114.591H9.84787C6.52698 114.591 3.82552 111.912 3.82552 108.619ZM41.6444 114.591V100.991C41.6444 100.135 42.3461 99.439 43.2087 99.439H54.262C55.1246 99.439 55.8264 100.135 55.8264 100.991V114.591H41.6444ZM117.537 40.1576C113.172 56.5652 113.567 61.313 110.807 60.5063H66.9594C66.2185 60.4242 65.1664 60.8386 64.7495 59.8542L59.9341 40.1576C59.9289 39.7835 59.8249 39.3399 60.7702 39.1034H116.701C117.069 39.1866 117.528 39.1906 117.537 40.1576Z" fill="#0071BC"/>
<path d="M105.052 43.6553H73.2625C72.2598 43.6553 71.447 44.4616 71.447 45.4558V54.153C71.447 55.1474 72.2598 55.9535 73.2625 55.9535H105.052C106.055 55.9535 106.868 55.1472 106.868 54.153V45.4558C106.868 44.4616 106.055 43.6553 105.052 43.6553ZM103.237 52.3525H75.0782V47.2565H103.237V52.3525Z" fill="#0071BC"/>
<path d="M29.689 95.838H11.8755C10.8728 95.838 10.0601 96.6443 10.0601 97.6385C10.0601 98.6329 10.8728 99.4389 11.8755 99.4389H29.6888C30.6915 99.4389 31.5042 98.6327 31.5042 97.6385C31.5045 96.644 30.6917 95.838 29.689 95.838Z" fill="#0071BC"/>
<path d="M79.8396 68.1161C78.8369 68.1161 78.0242 68.9224 78.0242 69.9166C78.0242 70.9111 78.8369 71.7171 79.8396 71.7171H97.6529C98.6556 71.7171 99.4684 70.9108 99.4684 69.9166C99.4684 68.9222 98.6556 68.1161 97.6529 68.1161H79.8396Z" fill="#0071BC"/>
<path d="M83.6703 22.8979C82.5586 22.8979 81.6572 23.7919 81.6572 24.8944C81.6572 25.9969 82.5586 26.8908 83.6703 26.8908C84.782 26.8908 85.6833 25.9969 85.6833 24.8944C85.6833 23.7919 84.7822 22.8979 83.6703 22.8979Z" fill="#0071BC"/>
<path d="M93.4476 22.8979C92.3359 22.8979 91.4346 23.7919 91.4346 24.8944C91.4346 25.9969 92.3357 26.8908 93.4476 26.8908C94.5595 26.8908 95.4606 25.9969 95.4606 24.8944C95.4606 23.7919 94.5593 22.8979 93.4476 22.8979Z" fill="#0071BC"/>
<path d="M2.27531 28.0254L6.59894 31.6519C10.2719 34.7697 16.222 35.2436 20.5248 32.67L57.5652 9.43919C58.2182 9.00841 58.7658 7.91435 58.049 6.83927C56.0024 4.1245 50.7921 -0.201355 45.7221 2.86075C41.523 5.39693 34.3039 10.2225 31.9059 11.8336L18.7691 6.82076C18.327 6.65247 17.8366 6.66161 17.4015 6.84654L11.0615 9.54279C10.0791 10.0183 9.47741 11.3554 10.5711 12.5437L18.517 19.545L13.7242 23.8526L6.59066 22.8895C6.14353 22.8293 5.68907 22.9361 5.31686 23.1902L2.41876 25.1672C1.70718 25.6753 1.2168 26.9843 2.27531 28.0254ZM6.79627 26.5516C8.22416 26.5026 14.4434 28.215 15.5362 27.0839L22.4549 20.8659C23.0344 20.3212 23.3794 19.1161 22.4417 18.1856L15.1205 11.7349L18.1542 10.4447L31.4881 15.5325C32.0451 15.7446 32.6699 15.6726 33.162 15.3403C33.2567 15.2761 42.7077 8.89755 47.6108 5.93622C49.8687 4.57193 52.3126 6.19615 53.7847 7.54943L18.5838 29.6261C15.8843 31.2326 11.6318 31.1531 8.94355 28.9022L6.43492 26.7979L6.79627 26.5516Z" fill="#0071BC"/>
<path d="M18.5983 54.7936L10.863 59.5099C10.0087 60.0307 9.74212 61.1397 10.2672 61.9868C10.6099 62.5399 11.2055 62.8446 11.8154 62.8446C12.1397 62.8446 12.4682 62.7583 12.7645 62.5776L20.4998 57.8613C21.3541 57.3405 21.6207 56.2315 21.0956 55.3844C20.5707 54.5372 19.4524 54.2728 18.5983 54.7936Z" fill="#0071BC"/>
<path d="M37.2514 34.436C36.7145 33.596 35.5924 33.3473 34.7461 33.8794L16.8707 45.1186C16.0237 45.6511 15.7728 46.7637 16.3095 47.6034C16.655 48.1441 17.2432 48.4402 17.8444 48.4402C18.1769 48.4402 18.5135 48.3497 18.8148 48.1601L36.6902 36.9209C37.5372 36.3884 37.7884 35.2758 37.2514 34.436Z" fill="#0071BC"/>
</g>
<defs>
<clipPath id="clip0">
<rect width="121" height="120" fill="white" transform="translate(0.194336)"/>
</clipPath>
</defs>
</svg>
