<svg width="137" height="109" viewBox="0 0 137 109" fill="none" xmlns="http://www.w3.org/2000/svg">
<g opacity="0.1">
<path d="M107.551 86.6862C105.884 85.5273 104.417 84.1044 103.207 82.4736C100.311 79.1825 96.6248 75.1014 89.779 75.1014C82.9335 75.1014 79.3791 79.0507 76.351 82.6053C73.3232 86.1598 71.3485 88.2661 66.8726 88.2661C62.3967 88.2661 60.1586 85.7647 57.3941 82.6053C54.6297 79.4458 50.9435 75.1014 43.9662 75.1014C36.9889 75.1014 33.5662 79.0507 30.5382 82.6053C27.5104 86.1598 25.5357 88.2661 21.0598 88.2661C16.5839 88.2661 14.3458 85.7647 11.5813 82.6053C9.70205 80.1234 7.32564 78.0609 4.60401 76.5495C3.29523 75.8951 1.70398 76.4256 1.04959 77.7343C0.395204 79.0431 0.92562 80.6344 2.2344 81.2888C4.30138 82.5345 6.12924 84.1397 7.63179 86.028C10.6596 89.5824 14.214 93.5319 21.0598 93.5319C27.9055 93.5319 31.4597 89.5827 34.4877 86.028C37.5155 82.4736 39.4903 80.3673 43.9662 80.3673C48.4421 80.3673 50.6802 82.8687 53.4446 86.028C56.2091 89.1875 59.8953 93.5319 66.8726 93.5319C73.8499 93.5319 77.2725 89.5827 80.3005 86.028C83.3283 82.4736 85.3031 80.3673 89.779 80.3673C94.2549 80.3673 96.493 82.8687 99.2574 86.028C100.792 87.998 102.611 89.7283 104.655 91.1621C105.891 91.9618 107.541 91.6083 108.341 90.3721C109.141 89.1361 108.788 87.4859 107.551 86.6862Z" fill="#0071BC"/>
<path d="M153.976 66.9391C152.309 65.7802 150.842 64.3573 149.632 62.7265C146.736 59.4354 143.05 55.3543 136.204 55.3543C129.359 55.3543 125.804 59.3036 122.776 62.8583C119.748 66.4127 117.774 68.519 113.298 68.519C108.822 68.519 106.584 66.0176 103.819 62.8583C101.055 59.6987 97.3685 55.3543 90.3912 55.3543C83.4139 55.3543 79.9913 59.3036 76.9633 62.8583C73.9355 66.4127 71.9607 68.519 67.4848 68.519C63.0089 68.519 60.7708 66.0176 58.0064 62.8583C56.1271 60.3763 53.7507 58.3138 51.0291 56.8025C49.7203 56.1481 48.129 56.6785 47.4746 57.9873C46.8203 59.2961 47.3507 60.8873 48.6594 61.5417C50.7264 62.7875 52.5543 64.3926 54.0568 66.2809C57.0846 69.8353 60.639 73.7849 67.4848 73.7849C74.3306 73.7849 77.8847 69.8356 80.9128 66.2809C83.9406 62.7265 85.9153 60.6202 90.3912 60.6202C94.8671 60.6202 97.1052 63.1216 99.8697 66.2809C102.634 69.4405 106.32 73.7849 113.298 73.7849C120.275 73.7849 123.698 69.8356 126.726 66.2809C129.753 62.7265 131.728 60.6202 136.204 60.6202C140.68 60.6202 142.918 63.1216 145.682 66.2809C147.217 68.2509 149.036 69.9812 151.08 71.415C152.316 72.2148 153.966 71.8613 154.766 70.625C155.566 69.3893 155.213 67.7389 153.976 66.9391Z" fill="#0071BC"/>
<path d="M153.976 45.8756C152.309 44.7167 150.842 43.2938 149.632 41.663C146.736 38.3719 143.05 34.2908 136.204 34.2908C129.359 34.2908 125.804 38.2401 122.776 41.7948C119.748 45.3494 117.774 47.4555 113.298 47.4555C108.822 47.4555 106.584 44.9541 103.819 41.7948C101.055 38.6355 97.3685 34.2908 90.3912 34.2908C83.4139 34.2908 79.9913 38.2401 76.9633 41.7948C73.9355 45.3492 71.9607 47.4555 67.4848 47.4555C63.0089 47.4555 60.7708 44.9541 58.0064 41.7948C56.1271 39.3128 53.7507 37.2503 51.0291 35.739C49.7203 35.0846 48.129 35.615 47.4746 36.9238C46.8203 38.2325 47.3507 39.8238 48.6594 40.4782C50.7264 41.724 52.5543 43.3291 54.0568 45.2174C57.0846 48.7718 60.639 52.7213 67.4848 52.7213C74.3306 52.7213 77.8847 48.7721 80.9128 45.2174C83.9406 41.663 85.9153 39.5567 90.3912 39.5567C94.8671 39.5567 97.1052 42.0581 99.8697 45.2174C102.634 48.3767 106.32 52.7213 113.298 52.7213C120.275 52.7213 123.698 48.7721 126.726 45.2174C129.754 41.6627 131.728 39.5567 136.204 39.5567C140.68 39.5567 142.918 42.0581 145.682 45.2174C147.217 47.1874 149.036 48.9177 151.08 50.3515C152.316 51.1513 153.966 50.7977 154.766 49.5615C155.566 48.3258 155.213 46.6754 153.976 45.8756Z" fill="#0071BC"/>
<path d="M94.1916 20.7314C96.2586 21.9772 98.0865 23.5823 99.589 25.4706C102.617 29.025 106.171 32.9745 113.017 32.9745C119.863 32.9745 123.417 29.0253 126.445 25.4706C129.473 21.9162 131.447 19.8099 135.923 19.8099C140.399 19.8099 142.637 22.3113 145.402 25.4706C148.166 28.6302 151.853 32.9745 158.83 32.9745C165.807 32.9745 169.23 29.0253 172.258 25.4706C175.286 21.9162 177.26 19.8099 181.736 19.8099C186.212 19.8099 188.45 22.3113 191.215 25.4706C192.749 27.4406 194.568 29.1709 196.612 30.6049C197.848 31.4047 199.498 31.0509 200.298 29.815C201.098 28.579 200.745 26.9286 199.508 26.1288C197.841 24.9699 196.374 23.547 195.164 21.9162C192.268 18.6251 188.582 14.544 181.736 14.544C174.89 14.544 171.336 18.4933 168.308 22.048C165.28 25.6024 163.305 27.7087 158.83 27.7087C154.354 27.7087 152.116 25.2073 149.351 22.048C146.587 18.8884 142.9 14.544 135.923 14.544C128.946 14.544 125.523 18.4933 122.495 22.048C119.467 25.6024 117.493 27.7087 113.017 27.7087C108.541 27.7087 106.303 25.2073 103.539 22.0477C101.659 19.5657 99.2829 17.5033 96.5612 15.9919C95.2525 15.3375 93.6612 15.8679 93.0068 17.1767C92.3524 18.4855 92.8831 20.077 94.1916 20.7314Z" fill="#0071BC"/>
</g>
</svg>
