<svg width="100" height="152" viewBox="0 0 100 152" fill="none" xmlns="http://www.w3.org/2000/svg">
<g opacity="0.1" clip-path="url(#clip0)">
<path d="M153.012 47.846C150.014 38.8217 140.686 33.0577 131.088 33.5391C133.45 30.0439 134.695 26.0003 134.695 21.764C134.695 9.97451 124.913 0.383057 112.889 0.383057C107.375 0.383057 102.116 2.40416 98.0744 6.07534L37.6271 54.7289C37.5522 54.7891 37.4842 54.8542 37.4192 54.9215C31.2321 60.197 27.3142 67.9685 27.3142 76.6207C27.3142 79.2458 27.6769 81.7892 28.3522 84.2069C28.3522 84.2069 11.2651 99.9587 7.49539 103.723C3.40356 107.808 0.245361 115.397 0.245361 122.629C0.245361 138.484 13.4003 151.383 29.5703 151.383C41.7465 151.383 52.2119 144.068 56.6394 133.686C61.0666 144.068 71.532 151.383 83.7079 151.383C95.3497 151.383 105.428 144.697 110.16 135.035L144.743 76.7767C146.21 74.3049 142.31 72.0792 140.843 74.5512L113.006 121.446C112.371 106.138 99.4737 93.8759 83.7079 93.8759C82.4233 93.8759 81.1576 93.9582 79.916 94.116C79.916 94.116 119.676 47.6068 126.813 39.0146C135.162 35.19 146.019 41.0817 148.722 49.2165C150.253 53.8235 149.838 58.9159 147.585 63.1878C146.245 65.7283 150.253 67.7603 151.592 65.2202C154.397 59.9033 154.914 53.5707 153.012 47.846ZM101.007 9.43804C104.487 6.6354 108.271 4.80688 112.889 4.80688C122.425 4.80688 130.184 12.4138 130.184 21.7643C130.184 25.4432 129.004 28.9395 126.772 31.8786C126.772 31.8786 88.4696 77.0318 85.7283 80.2765C85.8841 79.0791 85.9641 77.8587 85.9641 76.6207C85.9641 60.766 72.8091 47.867 56.6394 47.867C55.4026 47.867 54.1836 47.9433 52.9867 48.0896L101.007 9.43804ZM56.6391 52.2908C70.3211 52.2908 81.4521 63.205 81.4521 76.6207C81.4521 89.7975 70.088 100.95 56.6391 100.95C42.9572 100.95 31.8259 90.0361 31.8259 76.6207C31.8262 63.2053 42.9572 52.2908 56.6391 52.2908ZM60.456 105.131C58.9154 107.094 57.6269 109.257 56.6391 111.573C55.6514 109.257 54.3628 107.094 52.8222 105.131C54.072 105.291 55.3458 105.374 56.6391 105.374C57.9325 105.374 59.2066 105.291 60.456 105.131ZM30.0471 88.7325C30.9602 90.6525 32.0831 92.4574 33.3872 94.1193C32.1375 93.9594 30.8637 93.8759 29.5703 93.8759C27.6546 93.8759 25.7817 94.0591 23.9674 94.4047L30.0471 88.7325ZM29.5703 146.959C15.8884 146.959 4.75708 136.045 4.75708 122.629C4.75708 116.414 7.14949 110.738 11.0747 106.433C15.9212 101.414 22.4283 98.2998 29.5703 98.2998C43.2523 98.2998 54.3836 109.214 54.3836 122.63C54.3836 136.045 43.2523 146.959 29.5703 146.959ZM108.521 122.629C108.521 136.045 97.3902 146.959 83.7079 146.959C70.026 146.959 58.895 136.045 58.895 122.629C58.895 109.214 70.026 98.2995 83.7079 98.2995C97.3902 98.2998 108.521 109.214 108.521 122.629Z" fill="#0071BC"/>
<path d="M56.6396 98.001C68.663 98.001 78.4451 88.4098 78.4451 76.6203C78.4451 64.8308 68.6633 55.2397 56.6396 55.2397C52.4657 55.2397 48.4015 56.4102 44.8863 58.6245C42.4322 60.1702 44.8709 63.8921 47.3247 62.3464C50.1112 60.5913 53.3322 59.6635 56.6396 59.6635C66.1753 59.6635 73.9333 67.2701 73.9333 76.6203C73.9333 85.9705 66.1756 93.5771 56.6396 93.5771C47.1036 93.5771 39.3462 85.9705 39.3462 76.6203C39.3462 74.4624 39.761 72.3513 40.5791 70.3464C41.6625 67.6913 37.4735 66.048 36.3901 68.7034C35.3578 71.2336 34.8345 73.8973 34.8345 76.6206C34.8345 88.4098 44.6162 98.001 56.6396 98.001Z" fill="#0071BC"/>
<path d="M29.5708 101.249C17.5473 101.249 7.76562 110.84 7.76562 122.63C7.76562 134.419 17.5473 144.01 29.5708 144.01C41.5942 144.01 51.3762 134.419 51.3762 122.629C51.3762 110.84 41.5942 101.249 29.5708 101.249ZM29.5708 139.586C20.0351 139.586 12.2773 131.98 12.2773 122.629C12.2773 113.279 20.0351 105.672 29.5708 105.672C39.1064 105.672 46.8645 113.279 46.8645 122.629C46.8645 131.98 39.1064 139.586 29.5708 139.586Z" fill="#0071BC"/>
<path d="M83.709 144.01C95.7324 144.01 105.514 134.419 105.514 122.629C105.514 110.84 95.7324 101.249 83.709 101.249C71.6856 101.249 61.9036 110.84 61.9036 122.629C61.9036 134.419 71.6856 144.01 83.709 144.01ZM83.709 105.673C93.2447 105.673 101.002 113.279 101.002 122.63C101.002 131.98 93.2447 139.586 83.709 139.586C74.1733 139.586 66.4153 131.979 66.4153 122.629C66.4153 113.279 74.1733 105.673 83.709 105.673Z" fill="#0071BC"/>
</g>
<defs>
<clipPath id="clip0">
<rect width="154" height="151" fill="white" transform="translate(0.194336 0.383057)"/>
</clipPath>
</defs>
</svg>
