<svg width="116" height="154" viewBox="0 0 116 154" fill="none" xmlns="http://www.w3.org/2000/svg">
<g opacity="0.1" clip-path="url(#clip0)">
<path d="M2.75215 97.3938C9.71478 97.2303 16.5725 99.1134 22.4753 102.81C23.5946 103.427 24.6987 104.036 25.859 104.595L1.41856 75.21C0.12381 73.6962 -0.171127 71.5668 0.663757 69.7581C1.49864 67.9494 3.31004 66.7924 5.30222 66.7954H27.4224L54.2955 47.2507L55.5959 44.6525C58.1729 39.4571 63.4792 36.1782 69.2786 36.197H95.5218L98.0715 31.0972H84.348C82.9397 31.0972 81.7982 29.9554 81.7982 28.5474C81.7982 27.1394 82.9397 25.9977 84.348 25.9977H112.397C113.805 25.9977 114.946 27.1391 114.946 28.5474C114.946 29.9557 113.805 31.0972 112.397 31.0972H103.773L101.223 36.197H112.397C116.621 36.197 120.046 39.6217 120.046 43.8466C120.046 48.0715 116.621 51.4962 112.397 51.4962H108.873L116.522 66.7954H118.771C120.375 66.7987 121.886 67.5538 122.851 68.8354L128.971 76.9951H133.356C134.225 76.9948 135.034 77.4367 135.503 78.1679L147.906 97.4909C148.786 97.4398 149.673 97.3941 150.645 97.3941C152.053 97.3941 153.194 98.5356 153.194 99.9439C153.194 101.352 152.053 102.494 150.645 102.494C144.547 102.347 138.543 104.012 133.392 107.277C127.49 110.975 120.633 112.858 113.671 112.693C108.215 112.851 102.8 111.7 97.88 109.335L97.8441 109.317C96.4851 108.662 95.2152 107.966 93.9608 107.277C88.8128 104.013 82.8124 102.348 76.7187 102.494C70.619 102.346 64.6123 104.011 59.4587 107.277C53.553 110.975 46.6913 112.859 39.7254 112.693C32.7628 112.857 25.905 110.974 20.0023 107.277C14.8514 104.013 8.84883 102.349 2.75246 102.494C1.34415 102.494 0.202698 101.352 0.202698 99.9439C0.202698 98.5356 1.34386 97.3938 2.75215 97.3938ZM57.1282 51.4962L50.116 56.596H79.2481C80.6564 56.596 81.7979 55.4546 81.7979 54.0463V51.4965H57.1282V51.4962ZM112.397 46.3967C113.805 46.3967 114.946 45.2552 114.946 43.8469C114.946 42.4386 113.805 41.2971 112.397 41.2971H69.2783C65.6402 41.2909 62.2786 43.2379 60.4734 46.397H112.397V46.3967ZM103.171 51.4962H86.8977V54.046C86.8977 58.2706 83.473 61.6956 79.2481 61.6956H43.1038L36.0916 66.7954H110.821L103.171 51.4962ZM118.771 71.8952H66.499V74.445C66.499 75.8533 67.6405 76.9948 69.0488 76.9948H122.596L118.771 71.8952ZM39.7254 107.593C45.8287 107.743 51.839 106.078 56.9956 102.81C62.8983 99.1134 69.7561 97.2306 76.7187 97.3938C83.6774 97.2306 90.531 99.1137 96.4292 102.81C101.577 106.075 107.577 107.74 113.671 107.593C119.769 107.74 125.774 106.076 130.926 102.81C134.45 100.681 138.292 99.1317 142.306 98.22L131.964 82.0946H69.0488C64.8242 82.0946 61.3992 78.6699 61.3992 74.445V71.8952H53.7496V79.5448C53.7496 80.9531 52.6078 82.0946 51.1998 82.0946C49.7918 82.0946 48.65 80.9531 48.65 79.5448V71.8952H43.5502V79.5448C43.5502 80.9531 42.4087 82.0946 41.0004 82.0946C39.5921 82.0946 38.4507 80.9531 38.4507 79.5448V71.8952H33.3508V79.5448C33.3508 80.9531 32.2094 82.0946 30.8011 82.0946C29.3928 82.0946 28.2513 80.9531 28.2513 79.5448V71.9105H5.32553L34.7078 107.267C36.3709 107.486 38.0473 107.596 39.7254 107.593Z" fill="#0071BC"/>
<path d="M2.75204 112.693C9.71466 112.53 16.5724 114.413 22.4752 118.109C27.6261 121.373 33.6286 123.038 39.725 122.893C45.8246 123.04 51.8314 121.375 56.985 118.109C62.8907 114.411 69.7523 112.528 76.7183 112.693C83.677 112.53 90.5306 114.413 96.4288 118.109C101.576 121.374 107.577 123.039 113.671 122.893C119.769 123.04 125.774 121.375 130.926 118.109C136.826 114.412 143.683 112.529 150.644 112.693C152.052 112.693 153.194 113.835 153.194 115.243C153.194 116.651 152.052 117.793 150.644 117.793C144.547 117.646 138.543 119.311 133.391 122.576C127.49 126.273 120.633 128.157 113.671 127.992C106.712 128.156 99.8577 126.272 93.96 122.574C88.8118 119.311 82.8116 117.647 76.718 117.793C70.6183 117.646 64.6116 119.31 59.458 122.577C53.5522 126.275 46.6906 128.158 39.7247 127.993C32.7621 128.156 25.9043 126.273 20.0016 122.577C14.8507 119.312 8.84811 117.648 2.75175 117.793C1.34344 117.793 0.201981 116.651 0.201981 115.243C0.201981 113.835 1.34373 112.693 2.75204 112.693Z" fill="#0071BC"/>
</g>
<defs>
<clipPath id="clip0">
<rect width="153" height="153" fill="white" transform="matrix(-1 0 0 1 153.194 0.5)"/>
</clipPath>
</defs>
</svg>
