<svg width="69" height="70" viewBox="0 0 69 70" fill="none" xmlns="http://www.w3.org/2000/svg">
<g clip-path="url(#clip0)">
<path d="M13.4344 36.8871C13.3657 36.8871 13.2966 36.8835 13.2269 36.8762C12.1324 36.7614 11.3371 35.7679 11.4502 34.6574C12.3489 25.8427 15.1989 17.1668 19.6923 9.56771C20.2584 8.61047 21.4817 8.29984 22.4256 8.87434C23.3691 9.44871 23.6749 10.6904 23.1089 11.6478C18.9135 18.7429 16.2525 26.8433 15.4136 35.0734C15.3075 36.1133 14.4424 36.8871 13.4344 36.8871Z" fill="#ED1C24"/>
<path d="M13.4326 36.8869C13.4206 36.8869 13.4088 36.8867 13.3967 36.8866C12.2968 36.8669 11.4206 35.9461 11.44 34.8298C11.6314 23.8108 12.9897 12.785 15.477 2.05891C15.7289 0.972169 16.8015 0.298615 17.8725 0.554129C18.9435 0.809912 19.6074 1.89814 19.3555 2.98488C16.933 13.4312 15.6102 24.1694 15.4237 34.9011C15.4046 36.0051 14.5165 36.8869 13.4326 36.8869Z" fill="#ED1C24"/>
<path d="M13.4294 36.8872C12.4212 36.8872 11.5562 36.1133 11.4502 35.0735C10.6114 26.8434 7.95021 18.743 3.75496 11.6479C3.18878 10.6905 3.49478 9.44877 4.43827 8.8744C5.38177 8.29976 6.60549 8.61053 7.17154 9.56777C11.665 17.1669 14.515 25.8428 15.4137 34.6575C15.5269 35.7679 14.7314 36.7614 13.6369 36.8762C13.5672 36.8837 13.4979 36.8872 13.4294 36.8872Z" fill="#ED1C24"/>
<path d="M13.4312 36.8869C12.3472 36.8869 11.4591 36.0051 11.44 34.901C11.2536 24.1692 9.93084 13.4312 7.50822 2.98475C7.25628 1.89815 7.9202 0.809919 8.9912 0.554136C10.0622 0.298622 11.1348 0.972042 11.3867 2.05892C13.8742 12.7851 15.2323 23.8108 15.4237 34.8298C15.4431 35.9461 14.5669 36.8669 13.467 36.8866C13.4551 36.8867 13.443 36.8869 13.4312 36.8869Z" fill="#ED1C24"/>
<path d="M39.33 15.834L37.3963 16.0429L39.33 21.5535V27.9629L37.8106 28.9507L39.2038 33.5543C38.9196 34.3197 38.1918 34.8655 37.3378 34.8655H29.3691C28.2694 34.8655 27.377 33.9599 27.377 32.844V21.5535L28.6307 19.9659L27.377 15.834V9.42462L28.6307 6.99885L27.377 3.7052V2.52196C27.377 1.40611 28.2694 0.500488 29.3691 0.500488H37.3378C38.4375 0.500488 39.33 1.40611 39.33 2.52196V15.834Z" fill="#ED1C24"/>
<path d="M39.3301 15.834L37.3963 16.0429L39.3301 21.5535V27.9629L37.8107 28.9507L39.2039 33.5543C38.9197 34.3197 38.1919 34.8655 37.3379 34.8655H33.3535V0.500488H37.3379C38.4376 0.500488 39.3301 1.40611 39.3301 2.52196V15.834Z" fill="#ED1C24"/>
<path d="M39.3301 15.834V21.5534L27.377 9.42453V3.70508L39.3301 15.834Z" fill="#ED1C24"/>
<path d="M39.3301 27.9629V32.8441C39.3301 33.0934 39.2849 33.3333 39.2039 33.5543L27.377 21.5534V15.834L39.3301 27.9629Z" fill="#ED1C24"/>
<path d="M39.3301 15.834V21.5534L33.3535 15.489V9.76953L39.3301 15.834Z" fill="#ED1C24"/>
<path d="M33.3535 21.8984L39.3301 27.9629V32.8441C39.3301 33.0934 39.2849 33.3333 39.2039 33.5543L33.3535 27.6179V21.8984Z" fill="#ED1C24"/>
<path d="M55.2676 2.52196V34.8655C55.2676 35.9814 54.3751 36.887 53.2754 36.887C52.1757 36.887 51.2832 35.9814 51.2832 34.8655V2.52196C51.2832 1.40611 52.1757 0.500488 53.2754 0.500488C54.3751 0.500488 55.2676 1.40611 55.2676 2.52196Z" fill="#ED1C24"/>
<path d="M55.2676 2.52196V34.8655C55.2676 35.9814 54.3751 36.887 53.2754 36.887V0.500488C54.3751 0.500488 55.2676 1.40611 55.2676 2.52196Z" fill="#ED1C24"/>
<path d="M57.2597 32.844H49.291C48.1913 32.844 47.2988 33.7496 47.2988 34.8655V67.4786C47.2988 68.5944 48.1913 69.5 49.291 69.5H57.2597C58.3594 69.5 59.2519 68.5944 59.2519 67.4786V34.8655C59.2519 33.7496 58.3594 32.844 57.2597 32.844Z" fill="#0071BC"/>
<path d="M59.2519 34.8655V67.4786C59.2519 68.5944 58.3594 69.5 57.2597 69.5H53.2754V32.844H57.2597C58.3594 32.844 59.2519 33.7496 59.2519 34.8655Z" fill="#0071BC"/>
<path d="M17.4162 32.844H9.4475C8.34782 32.844 7.45532 33.7496 7.45532 34.8655V67.4786C7.45532 68.5944 8.34782 69.5 9.4475 69.5H17.4162C18.5159 69.5 19.4084 68.5944 19.4084 67.4786V34.8655C19.4084 33.7496 18.5159 32.844 17.4162 32.844Z" fill="#0071BC"/>
<path d="M19.4084 34.8655V67.4786C19.4084 68.5944 18.5159 69.5 17.4162 69.5H13.4319V32.844H17.4162C18.5159 32.844 19.4084 33.7496 19.4084 34.8655Z" fill="#0071BC"/>
<path d="M41.3224 32.844H25.385C24.2853 32.844 23.3928 33.7496 23.3928 34.8655V67.4786C23.3928 68.5944 24.2853 69.5 25.385 69.5H41.3224C42.4221 69.5 43.3146 68.5944 43.3146 67.4786V34.8655C43.3146 33.7496 42.4221 32.844 41.3224 32.844Z" fill="#0071BC"/>
<path d="M43.3144 34.8655V67.4786C43.3144 68.5944 42.4219 69.5 41.3222 69.5H33.3535V32.844H41.3222C42.4219 32.844 43.3144 33.7496 43.3144 34.8655Z" fill="#0071BC"/>
</g>
<defs>
<clipPath id="clip0">
<rect width="68" height="69" fill="white" transform="translate(0.276367 0.5)"/>
</clipPath>
</defs>
</svg>
