<svg width="72" height="72" viewBox="0 0 72 72" fill="none" xmlns="http://www.w3.org/2000/svg">
<g clip-path="url(#clip0)">
<path d="M35.6944 24.1965L42.7699 35.2473L55.3202 38.6563L47.1428 48.8952L47.8238 62.0528L35.6944 57.33L23.5651 62.0528L24.2461 48.8952L16.0686 38.6563L28.619 35.2473L35.6944 24.1965Z" fill="#0071BC"/>
<path d="M35.6943 24.1965L42.7698 35.2473L55.3202 38.6563L47.1427 48.8952L47.8237 62.0528L35.6943 57.33V24.1965Z" fill="#0071BC"/>
<path d="M17.7082 51.2758L18.5697 44.046L11.7066 46.1896L5.19235 43.1245L5.08196 50.4061L0.194336 55.7415L6.98926 58.0983L10.4827 64.4608L14.7926 58.6357L21.8392 57.2326L17.7082 51.2758Z" fill="#0071BC"/>
<path d="M66.3065 50.4061L66.1962 43.1245L59.6819 46.1896L52.8188 44.046L53.6803 51.2758L49.5493 57.2326L56.5959 58.6357L60.9058 64.4608L64.3993 58.0983L71.1942 55.7415L66.3065 50.4061Z" fill="#0071BC"/>
<path d="M13.5935 21.5752L16.5514 18.6094L24.46 26.7206L21.5021 29.6864L13.5935 21.5752Z" fill="#ED1C24"/>
<path d="M46.9229 26.7437L54.8314 18.6324L57.7893 21.5982L49.8807 29.7094L46.9229 26.7437Z" fill="#ED1C24"/>
<path d="M33.6143 7.53906H37.7744V18.2823H33.6143V7.53906Z" fill="#ED1C24"/>
<path d="M35.6943 7.53906H37.7744V18.2823H35.6943V7.53906Z" fill="#ED1C24"/>
</g>
<defs>
<clipPath id="clip0">
<rect width="71" height="72" fill="white" transform="translate(0.194336)"/>
</clipPath>
</defs>
</svg>
