<svg width="77" height="76" viewBox="0 0 77 76" fill="none" xmlns="http://www.w3.org/2000/svg">
<g clip-path="url(#clip0)">
<path d="M56.5392 63.5517H70.953C73.8477 63.5517 76.1943 61.205 76.1943 58.3103V11.1379C76.1943 8.24313 73.8477 5.89648 70.953 5.89648H5.43572C2.54098 5.89648 0.194336 8.24313 0.194336 11.1379V58.3103C0.194336 61.205 2.54098 63.5517 5.43572 63.5517H56.5392Z" fill="#0071BC"/>
<path d="M47.3667 53.0688H13.2978C10.403 53.0688 8.0564 50.7221 8.0564 47.8274V21.6205C8.0564 18.7258 10.403 16.3792 13.2978 16.3792H47.3667V53.0688Z" fill="white"/>
<path d="M47.3668 54.3792H13.2978C9.6812 54.3749 6.75043 51.4441 6.74609 47.8275V21.6206C6.75043 18.004 9.6812 15.0732 13.2978 15.0688H47.3668C48.0905 15.0688 48.6771 15.6555 48.6771 16.3792V53.0688C48.6771 53.7925 48.0905 54.3792 47.3668 54.3792ZM13.2978 17.6895C11.1268 17.6895 9.36678 19.4495 9.36678 21.6206V47.8275C9.36678 49.9985 11.1268 51.7585 13.2978 51.7585H46.0564V17.6895H13.2978Z" fill="#ED1C24"/>
<path d="M32.953 36.0343H14.6082C13.8845 36.0343 13.2979 35.4476 13.2979 34.7239C13.2979 34.0002 13.8845 33.4136 14.6082 33.4136H32.953C33.6767 33.4136 34.2634 34.0002 34.2634 34.7239C34.2634 35.4476 33.6767 36.0343 32.953 36.0343Z" fill="#0071BC"/>
<path d="M32.953 30.7931H14.6082C13.8845 30.7931 13.2979 30.2064 13.2979 29.4827C13.2979 28.759 13.8845 28.1724 14.6082 28.1724H32.953C33.6767 28.1724 34.2634 28.759 34.2634 29.4827C34.2634 30.2064 33.6767 30.7931 32.953 30.7931Z" fill="#0071BC"/>
<path d="M32.953 25.5516H14.6082C13.8845 25.5516 13.2979 24.9649 13.2979 24.2413C13.2979 23.5176 13.8845 22.9309 14.6082 22.9309H32.953C33.6767 22.9309 34.2634 23.5176 34.2634 24.2413C34.2634 24.9649 33.6767 25.5516 32.953 25.5516Z" fill="#0071BC"/>
<path d="M14.6081 49.1378C13.987 49.1385 13.4508 48.7031 13.3239 48.0951C13.197 47.4871 13.5144 46.8736 14.0839 46.6258C14.9977 46.2989 15.8421 45.8038 16.5736 45.1661C17.2427 44.5093 17.6099 43.6046 17.5878 42.6673C17.5482 42.0188 17.9897 41.4392 18.6255 41.3052C19.2612 41.1712 19.8992 41.5233 20.1246 42.1327C20.5207 43.3141 21.3151 44.3211 22.3719 44.9814C22.6211 45.1633 22.9306 45.243 23.2367 45.2041C23.4316 45.0747 23.5437 44.852 23.5315 44.6184C23.4858 43.969 23.9238 43.3844 24.5599 43.246C25.1961 43.1075 25.8374 43.4571 26.0657 44.0667C26.1968 44.414 26.5099 44.9067 27.7325 45.1884L28.7454 45.4282C30.5063 45.9559 32.3373 46.2122 34.1755 46.1882C34.8973 46.1361 35.5248 46.679 35.5769 47.4009C35.629 48.1228 35.086 48.7502 34.3641 48.8023C32.2577 48.8475 30.1568 48.5691 28.1348 47.9768L27.1441 47.7422C26.4602 47.597 25.807 47.3331 25.214 46.9626C24.9186 47.2667 24.561 47.5036 24.1657 47.6571C23.1345 48.0043 22.0011 47.8594 21.0904 47.264C20.4374 46.8892 19.8493 46.4113 19.3489 45.8488C19.0921 46.2777 18.7841 46.6737 18.4317 47.0281C17.4711 47.9015 16.3507 48.5809 15.1322 49.029C14.967 49.1015 14.7885 49.1386 14.6081 49.1378Z" fill="#0071BC"/>
<path d="M56.5392 55.6896V68.2505C56.539 68.7804 56.2198 69.2581 55.7302 69.4609C55.2406 69.6636 54.6771 69.5516 54.3024 69.1769L51.2978 66.1723L48.2932 69.1769C47.9184 69.5516 47.3549 69.6636 46.8653 69.4609C46.3758 69.2581 46.0565 68.7804 46.0564 68.2505V37.3447C46.4296 37.714 46.9334 37.9211 47.4585 37.9213C47.6961 37.9211 47.9316 37.8767 48.1529 37.7902C48.3736 37.7015 48.6096 37.657 48.8474 37.6592C49.6356 37.6641 50.3502 38.1235 50.6819 38.8385C51.0078 39.5508 51.72 40.0069 52.5033 40.0047C53.0096 40.0067 53.4973 39.8144 53.866 39.4675C53.8792 39.4544 53.9054 39.4413 53.9185 39.4282L56.5392 55.6896Z" fill="#ED1C24"/>
<path d="M64.4012 37.3447V55.1471C64.4011 55.677 64.0818 56.1546 63.5923 56.3574C63.1027 56.5602 62.5392 56.4481 62.1644 56.0735L59.1598 53.0689L56.1552 56.0735C55.7805 56.4481 55.217 56.5602 54.7274 56.3574C54.2378 56.1546 53.9186 55.677 53.9185 55.1471V39.4229C54.6861 38.7442 55.8442 38.7612 56.5916 39.4622C56.9603 39.8092 57.448 40.0015 57.9543 39.9995C58.7376 40.0016 59.4498 39.5456 59.7757 38.8333C60.1074 38.1183 60.822 37.6589 61.6102 37.654C61.848 37.6517 62.084 37.6963 62.3047 37.785C62.526 37.8714 62.7615 37.9159 62.9991 37.916C63.5234 37.9173 64.0271 37.7121 64.4012 37.3447Z" fill="#ED1C24"/>
<path d="M70.4157 28.2249C70.7626 28.5936 70.9549 29.0813 70.9529 29.5876C70.9551 30.3709 70.499 31.0831 69.7867 31.409C69.0717 31.7407 68.6123 32.4553 68.6074 33.2435C68.6052 33.4813 68.6497 33.7173 68.7385 33.938C68.8249 34.1593 68.8693 34.3948 68.8695 34.6324C68.864 35.7121 68.0091 36.5959 66.9302 36.6373C65.8827 36.6757 65.0424 37.516 65.004 38.5635C64.9924 39.0798 64.7755 39.5703 64.4012 39.9262C64.028 40.2955 63.5242 40.5026 62.9991 40.5028C62.7615 40.5026 62.526 40.4582 62.3047 40.3717C62.084 40.283 61.848 40.2385 61.6102 40.2407C60.822 40.2456 60.1074 40.705 59.7757 41.42C59.4498 42.1323 58.7376 42.5884 57.9543 42.5862C57.448 42.5882 56.9603 42.3959 56.5916 42.049C55.8442 41.348 54.6861 41.3309 53.9184 42.0097C53.9053 42.0228 53.8791 42.0359 53.866 42.049C53.4973 42.3959 53.0096 42.5882 52.5033 42.5862C51.72 42.5884 51.0078 42.1323 50.6819 41.42C50.3502 40.705 49.6356 40.2456 48.8474 40.2407C48.6096 40.2385 48.3736 40.283 48.1529 40.3717C47.9316 40.4582 47.6961 40.5026 47.4584 40.5028C46.9334 40.5026 46.4296 40.2955 46.0564 39.9262C45.6821 39.5703 45.4652 39.0798 45.4536 38.5635C45.4152 37.516 44.5749 36.6757 43.5274 36.6373C42.4485 36.5959 41.5936 35.7121 41.5881 34.6324C41.5883 34.3948 41.6327 34.1593 41.7191 33.938C41.8079 33.7173 41.8524 33.4813 41.8502 33.2435C41.8453 32.4553 41.3859 31.7407 40.6709 31.409C39.9586 31.0831 39.5025 30.3709 39.5047 29.5876C39.5027 29.0813 39.695 28.5936 40.0419 28.2249C40.7582 27.4576 40.7582 26.2666 40.0419 25.4993C39.695 25.1306 39.5027 24.6429 39.5047 24.1366C39.5025 23.3533 39.9586 22.6411 40.6709 22.3152C41.3859 21.9835 41.8453 21.2689 41.8502 20.4807C41.8524 20.2429 41.8079 20.0069 41.7191 19.7862C41.6327 19.5649 41.5883 19.3294 41.5881 19.0917C41.5936 18.0121 42.4485 17.1283 43.5274 17.0869C44.5749 17.0485 45.4152 16.2082 45.4536 15.1607C45.495 14.0818 46.3788 13.2269 47.4584 13.2214C47.6961 13.2216 47.9316 13.266 48.1529 13.3524C48.3736 13.4412 48.6096 13.4857 48.8474 13.4835C49.6356 13.4786 50.3502 13.0192 50.6819 12.3042C51.0078 11.5919 51.72 11.1358 52.5033 11.138C53.0096 11.136 53.4973 11.3283 53.866 11.6752C54.6333 12.3915 55.8243 12.3915 56.5916 11.6752C57.0623 11.2382 57.7139 11.0533 58.344 11.1777C58.9741 11.3022 59.5065 11.721 59.7757 12.3042C60.1074 13.0192 60.822 13.4786 61.6102 13.4835C61.848 13.4857 62.084 13.4412 62.3047 13.3524C62.526 13.266 62.7615 13.2216 62.9991 13.2214C64.0788 13.2269 64.9626 14.0818 65.004 15.1607C65.0424 16.2082 65.8827 17.0485 66.9302 17.0869C68.0091 17.1283 68.864 18.0121 68.8695 19.0917C68.8693 19.3294 68.8249 19.5649 68.7385 19.7862C68.6497 20.0069 68.6052 20.2429 68.6074 20.4807C68.6123 21.2689 69.0717 21.9835 69.7867 22.3152C70.499 22.6411 70.9551 23.3533 70.9529 24.1366C70.9549 24.6429 70.7626 25.1306 70.4157 25.4993C69.6994 26.2666 69.6994 27.4576 70.4157 28.2249Z" fill="#ED1C24"/>
<path d="M55.2288 36.0345C60.2946 36.0345 64.4012 31.9279 64.4012 26.8621C64.4012 21.7963 60.2946 17.6897 55.2288 17.6897C50.163 17.6897 46.0564 21.7963 46.0564 26.8621C46.0564 31.9279 50.163 36.0345 55.2288 36.0345Z" fill="#0071BC"/>
<path d="M55.2288 37.3447C49.4394 37.3447 44.7461 32.6514 44.7461 26.8619C44.7461 21.0724 49.4394 16.3792 55.2288 16.3792C61.0183 16.3792 65.7116 21.0724 65.7116 26.8619C65.7051 32.6487 61.0156 37.3382 55.2288 37.3447ZM55.2288 18.9998C50.8867 18.9998 47.3668 22.5198 47.3668 26.8619C47.3668 31.204 50.8867 34.724 55.2288 34.724C59.5709 34.724 63.0909 31.204 63.0909 26.8619C63.0866 22.5216 59.5692 19.0042 55.2288 18.9998Z" fill="#0071BC"/>
</g>
<defs>
<clipPath id="clip0">
<rect width="76" height="76" fill="white" transform="translate(0.194336)"/>
</clipPath>
</defs>
</svg>
