<svg width="80" height="80" viewBox="0 0 80 80" fill="none" xmlns="http://www.w3.org/2000/svg">
<path d="M30.9678 37.5312V35.0625H48.249V52.3438C48.2471 52.9979 47.9863 53.6247 47.5238 54.0873C47.0612 54.5498 46.4344 54.8105 45.7803 54.8125H44.1262C43.4776 54.812 42.8353 54.9393 42.2359 55.1871C41.6365 55.4349 41.0918 55.7983 40.6329 56.2567L39.6084 57.2812L38.5839 56.2567C38.125 55.7983 37.5803 55.4349 36.9809 55.1871C36.3815 54.9393 35.7392 54.812 35.0906 54.8125H33.4365C32.7824 54.8105 32.1556 54.5498 31.693 54.0873C31.2305 53.6247 30.9697 52.9979 30.9678 52.3438V37.5312Z" fill="#ED1C24"/>
<path d="M27.2647 62.2188L29.7334 60.9844V64.6875L17.3897 68.3906L17.2415 68.4647L15.9331 66.0453L16.1553 65.9219L27.2647 62.2188Z" fill="#0071BC"/>
<path d="M64.2959 65.9219L61.8271 68.3906L49.4834 64.6875V60.9844L51.9521 62.2188L62.79 65.8355L62.827 65.6997C63.3024 65.8485 63.7978 65.9234 64.2959 65.9219Z" fill="#0071BC"/>
<path d="M33.4365 20.25C35.0961 20.6606 36.5817 21.589 37.6781 22.9007C38.7745 24.2123 39.4247 25.8391 39.5343 27.5452C39.5837 28.3228 39.6084 29.1745 39.6084 30.125V35.0625H33.4365C32.4544 35.0625 31.5125 34.6724 30.818 33.9779C30.1235 33.2834 29.7334 32.3415 29.7334 31.3594C31.7825 31.3594 33.4365 30.2608 33.4365 28.8906C33.4365 26.6687 31.6961 24.4592 29.7704 22.6817C28.2385 21.2971 26.572 20.0689 24.7959 19.0156L25.4378 18.6947C25.6306 18.598 25.8284 18.5115 26.0303 18.4355C27.0667 18.0035 28.1785 17.7812 29.3014 17.7813H35.9053L33.4365 20.25Z" fill="#0071BC"/>
<path d="M53.1865 18.4355C53.3884 18.5115 53.5862 18.598 53.779 18.6947L54.4209 19.0156C52.6448 20.0689 50.9783 21.2971 49.4464 22.6817C47.5207 24.4592 45.7803 26.6687 45.7803 28.8906C45.7803 30.2608 47.4343 31.3594 49.4834 31.3594C49.4834 32.3415 49.0932 33.2834 48.3988 33.9779C47.7043 34.6724 46.7624 35.0625 45.7803 35.0625H39.6084V30.125C39.6084 29.1745 39.6331 28.3228 39.6825 27.5452C39.7921 25.8391 40.4423 24.2123 41.5387 22.9007C42.6351 21.589 44.1207 20.6606 45.7803 20.25L43.3115 17.7813H49.9154C51.0383 17.7812 52.1501 18.0035 53.1865 18.4355Z" fill="#0071BC"/>
<path d="M24.7959 19.0156C26.572 20.0689 28.2385 21.2971 29.7704 22.6817L29.7334 22.7188H22.3271C22.3271 19.0156 24.7959 19.0156 24.7959 19.0156Z" fill="#0071BC"/>
<path d="M56.8896 22.7188H49.4833L49.4463 22.6817C50.9782 21.2971 52.6447 20.0689 54.4208 19.0156C54.4208 19.0156 56.8896 19.0156 56.8896 22.7188Z" fill="#0071BC"/>
<path d="M44.5459 9.14062C44.5276 10.481 44.0774 11.7797 43.2621 12.8438H43.3115V14.0781H35.9053V12.8438H35.9546C35.1394 11.7797 34.6892 10.481 34.6709 9.14062C34.6709 7.09156 35.9053 5.4375 39.6084 5.4375C43.3115 5.4375 44.5459 7.09156 44.5459 9.14062Z" fill="#0071BC"/>
<path d="M32.0911 15.078L30.9678 17.7812H29.3014C28.1785 17.7811 27.0667 18.0035 26.0303 18.4355V17.7812L24.907 15.078C24.8348 14.9102 24.7971 14.7298 24.7959 14.5472C24.8579 14.0425 25.1146 13.582 25.5111 13.2638C25.9077 12.9456 26.4129 12.7949 26.919 12.8437H30.079C30.5851 12.7949 31.0903 12.9456 31.4869 13.2638C31.8835 13.582 32.1401 14.0425 32.2021 14.5472C32.201 14.7298 32.1632 14.9102 32.0911 15.078Z" fill="#0071BC"/>
<path d="M54.4209 14.5472C54.4197 14.7298 54.382 14.9102 54.3098 15.078L53.1865 17.7812V18.4355C52.1501 18.0035 51.0383 17.7811 49.9154 17.7812H48.249L47.1257 15.078C47.0536 14.9102 47.0158 14.7298 47.0146 14.5472C47.0767 14.0425 47.3333 13.582 47.7299 13.2638C48.1265 12.9456 48.6317 12.7949 49.1378 12.8437H52.2978C52.8039 12.7949 53.3091 12.9456 53.7057 13.2638C54.1022 13.582 54.3589 14.0425 54.4209 14.5472Z" fill="#0071BC"/>
<path d="M23.5615 41.2344H19.8584L21.0928 37.5312C18.624 37.5312 18.624 32.5938 18.624 32.5938H22.3271C20.562 31.705 20.0559 28.2858 19.9078 26.4219C19.8584 25.6812 19.8584 25.1875 19.8584 25.1875L26.0303 31.3594C26.5407 31.8477 26.8691 32.4956 26.9611 33.1959C27.0531 33.8963 26.9033 34.607 26.5364 35.2106C26.3592 35.5219 26.1073 35.7842 25.8035 35.9738C25.4996 36.1635 25.1534 36.2745 24.7959 36.2969C24.7959 36.2969 24.7959 41.2344 30.9678 37.5312V42.4688H28.499L26.0303 43.7031L23.5615 41.2344Z" fill="#0071BC"/>
<path d="M56.8896 32.5938H60.5928C60.5928 32.5938 60.5928 37.5312 58.124 37.5312L59.3584 41.2344H55.6553L53.1865 43.7031L50.7178 42.4688H48.249V37.5312C54.4209 41.2344 54.4209 36.2969 54.4209 36.2969C54.0634 36.2745 53.7171 36.1635 53.4133 35.9738C53.1094 35.7842 52.8576 35.5219 52.6804 35.2106C52.3135 34.607 52.1637 33.8963 52.2557 33.1959C52.3477 32.4956 52.6761 31.8477 53.1865 31.3594L59.3584 25.1875C59.3584 25.1875 59.3584 25.6812 59.309 26.4219C59.1609 28.2858 58.6548 31.705 56.8896 32.5938Z" fill="#0071BC"/>
<path d="M59.3584 60.9844H69.2334C69.2334 62.2939 68.7132 63.5497 67.7872 64.4757C66.8613 65.4017 65.6054 65.9219 64.2959 65.9219C63.7978 65.9234 63.3024 65.8485 62.827 65.6997C61.8215 65.3864 60.9426 64.7598 60.3186 63.9115C59.6945 63.0631 59.3581 62.0375 59.3584 60.9844Z" fill="#0071BC"/>
<path d="M37.8803 66.3415C38.0161 65.2182 38.1271 64.1937 38.2259 63.453C38.3123 62.6877 38.374 62.2187 38.374 62.2187L38.4234 62.1816C38.7937 62.6137 39.2011 63.0457 39.6084 63.453C40.0157 63.0457 40.4231 62.6137 40.7934 62.1816L40.8428 62.2187C40.8428 62.2187 40.9045 62.6877 40.9909 63.453C41.0896 64.1937 41.2007 65.2182 41.3365 66.3415C41.6822 69.3534 42.0771 73.1552 42.0771 74.5624L39.6084 78.2655L37.1396 74.5624C37.1396 73.1552 37.5346 69.3534 37.8803 66.3415Z" fill="#0071BC"/>
<path d="M39.6084 63.4531C39.2011 63.0458 38.7937 62.6138 38.4234 62.1817C36.4889 59.921 34.816 57.4489 33.4365 54.8125H35.0906C35.7392 54.812 36.3815 54.9393 36.9809 55.1871C37.5803 55.4349 38.125 55.7983 38.5839 56.2567L39.6084 57.2813L40.6329 56.2567C41.0918 55.7983 41.6365 55.4349 42.2359 55.1871C42.8353 54.9393 43.4776 54.812 44.1262 54.8125H45.7803C44.4008 57.4489 42.7279 59.921 40.7934 62.1817C40.4231 62.6138 40.0157 63.0458 39.6084 63.4531Z" fill="#0071BC"/>
<path d="M69.2334 60.9844H59.3584C59.3584 59.6749 59.8786 58.419 60.8046 57.493C61.7305 56.5671 62.9864 56.0469 64.2959 56.0469C65.6054 56.0469 66.8613 56.5671 67.7872 57.493C68.7132 58.419 69.2334 59.6749 69.2334 60.9844Z" fill="#0071BC"/>
<path d="M38.2259 63.4531C38.1271 64.1938 38.0161 65.2183 37.8803 66.3416C36.7446 67.3538 33.9796 69.8842 33.9796 70.8594C33.9796 72.0938 34.6709 72.0938 34.6709 72.0938L33.4365 73.3281C33.677 74.6131 34.0923 75.859 34.6709 77.0312C31.0295 77.0312 28.499 74.8217 28.499 72.0938C28.499 69.662 34.8931 63.6259 38.2259 63.4531Z" fill="#0071BC"/>
<path d="M41.3366 66.3416C41.2008 65.2183 41.0897 64.1938 40.991 63.4531C44.3238 63.6259 50.7178 69.662 50.7178 72.0938C50.7178 74.8217 48.1874 77.0312 44.546 77.0312C45.1245 75.859 45.5399 74.6131 45.7803 73.3281L44.546 72.0938C44.546 72.0938 45.2372 72.0938 45.2372 70.8594C45.2372 69.8842 42.4722 67.3538 41.3366 66.3416Z" fill="#0071BC"/>
<path d="M29.7334 60.9844L27.2646 62.2188L26.0303 60.9844C24.6981 60.9649 23.4046 60.5337 22.3271 59.75C23.4011 59.75 24.7959 56.0469 24.7959 56.0469C24.7959 52.3438 30.9678 52.3438 30.9678 52.3438C30.9697 52.9979 31.2305 53.6247 31.693 54.0873C32.1556 54.5498 32.7824 54.8105 33.4365 54.8125C29.7334 54.8125 33.4365 60.9844 33.4365 60.9844C30.9678 63.4531 29.7334 60.9844 29.7334 60.9844Z" fill="#0071BC"/>
<path d="M45.7803 60.9844C45.7803 60.9844 49.4834 54.8125 45.7803 54.8125C46.4344 54.8105 47.0612 54.5498 47.5238 54.0873C47.9863 53.6247 48.2471 52.9979 48.249 52.3438C48.249 52.3437 54.4209 52.3438 54.4209 56.0469C54.4209 56.0469 55.8034 59.75 56.8896 59.75C55.8122 60.5337 54.5187 60.9649 53.1865 60.9844L51.9521 62.2188L49.4834 60.9844C49.4834 60.9844 48.249 63.4531 45.7803 60.9844Z" fill="#0071BC"/>
<path d="M26.0303 43.7031L28.499 42.4688H30.9678V47.4062H26.0303C26.0303 49.875 21.0928 52.3438 21.0928 52.3438C19.8584 51.1094 19.8584 44.9375 19.8584 44.9375C18.624 47.4062 12.4521 48.6406 12.4521 48.6406C12.4521 46.1719 16.1553 42.4688 16.1553 42.4688C13.3296 43.1985 10.4316 43.6125 7.51465 43.7031C8.74902 41.2344 13.6865 38.7656 13.6865 38.7656C11.5859 38.8081 9.50174 38.3877 7.58181 37.5344C5.66187 36.6811 3.95325 35.4158 2.57715 33.8281H12.4521C5.0459 32.5938 1.34277 25.1875 1.34277 25.1875L12.4521 28.8906C3.81152 23.9531 3.81152 17.7812 3.81152 17.7812L11.2178 22.7188C10.1495 21.3327 9.47162 19.686 9.25456 17.9495C9.03751 16.213 9.28916 14.4501 9.9834 12.8438L19.8584 26.4219H19.9078C20.0559 28.2858 20.562 31.705 22.3271 32.5938H18.624C18.624 32.5938 18.624 37.5312 21.0928 37.5312L19.8584 41.2344H23.5615L26.0303 43.7031Z" fill="#0071BC"/>
<path d="M53.1865 47.4062H48.249V42.4688H50.7178L53.1865 43.7031L55.6553 41.2344H59.3584L58.124 37.5312C60.5928 37.5312 60.5928 32.5938 60.5928 32.5938H56.8896C58.6548 31.705 59.1609 28.2858 59.309 26.4219H59.3584L69.2334 12.8438C69.9276 14.4501 70.1793 16.213 69.9622 17.9495C69.7452 19.686 69.0673 21.3327 67.999 22.7188L75.4053 17.7812C75.4053 17.7812 75.4053 23.9531 66.7646 28.8906L77.874 25.1875C77.874 25.1875 74.1709 32.5938 66.7646 33.8281H76.6396C75.2635 35.4158 73.5549 36.6811 71.635 37.5344C69.7151 38.3877 67.6309 38.8081 65.5303 38.7656C65.5303 38.7656 70.4678 41.2344 71.7021 43.7031C68.7852 43.6125 65.8872 43.1985 63.0615 42.4688C63.0615 42.4688 66.7646 46.1719 66.7646 48.6406C66.7646 48.6406 60.5928 47.4062 59.3584 44.9375C59.3584 44.9375 59.3584 51.1094 58.124 52.3438C58.124 52.3438 53.1865 49.875 53.1865 47.4062Z" fill="#0071BC"/>
<path d="M20.946 72.743L12.609 57.2603L13.557 55.3643C13.7028 55.0714 13.7263 54.7326 13.6225 54.4224L12.3881 50.7193C12.3369 50.5653 12.2558 50.4229 12.1495 50.3002C12.0433 50.1776 11.9139 50.077 11.7688 50.0044C11.6237 49.9317 11.4657 49.8883 11.3038 49.8767C11.1419 49.8651 10.9794 49.8855 10.8254 49.9367C10.6714 49.9879 10.529 50.069 10.4063 50.1752C10.2836 50.2815 10.1831 50.4109 10.1104 50.556C9.96365 50.8491 9.93932 51.1884 10.0428 51.4994L11.1142 54.7174L10.455 56.0469H8.17516L6.07672 52.893C5.89503 52.6207 5.61257 52.4316 5.29149 52.3675C4.97042 52.3034 4.63702 52.3694 4.36464 52.5511C4.09226 52.7328 3.90322 53.0153 3.8391 53.3363C3.77497 53.6574 3.84103 53.9908 4.02272 54.2632L6.49147 57.9663C6.60388 58.1348 6.75602 58.273 6.93448 58.3688C7.11294 58.4646 7.31222 58.515 7.51477 58.5156H10.4773L18.7673 73.9132C18.9225 74.2016 19.1859 74.4166 19.4996 74.5108C19.8132 74.605 20.1515 74.5708 20.4399 74.4156C20.7283 74.2604 20.9433 73.997 21.0375 73.6833C21.1317 73.3697 21.0975 73.0314 20.9423 72.743H20.946Z" fill="#0071BC"/>
<path d="M38.5839 58.7255L39.6084 59.75L40.6329 58.7255C41.0918 58.2671 41.6365 57.9036 42.2359 57.6558C42.8353 57.408 43.4776 57.2807 44.1262 57.2813H44.3731C45.2717 55.8284 45.7803 54.8125 45.7803 54.8125H44.1262C43.4776 54.812 42.8353 54.9393 42.2359 55.1871C41.6365 55.4349 41.0918 55.7984 40.6329 56.2567L39.6084 57.2813L38.5839 56.2567C38.125 55.7984 37.5803 55.4349 36.9809 55.1871C36.3815 54.9393 35.7392 54.812 35.0906 54.8125H33.4365C33.4365 54.8125 33.9451 55.8284 34.8449 57.2813H35.0918C36.4013 57.2806 37.6574 57.8001 38.5839 58.7255Z" fill="#0071BC"/>
<path d="M65.2957 63.2309C64.1151 62.859 63.1173 62.0572 62.4999 60.9844H59.3584C59.3581 62.0375 59.6945 63.0631 60.3186 63.9115C60.9426 64.7598 61.8215 65.3864 62.827 65.6997C63.3024 65.8485 63.7978 65.9234 64.2959 65.9219C65.246 65.9213 66.1757 65.6462 66.973 65.1295C67.7704 64.6129 68.4015 63.8769 68.7903 63.01C68.1542 63.3 67.4637 63.4511 66.7646 63.4531C66.2665 63.4546 65.7711 63.3797 65.2957 63.2309Z" fill="#0071BC"/>
<path d="M61.8271 58.5156C61.8292 57.8166 61.9803 57.126 62.2703 56.49C61.4034 56.8788 60.6673 57.5098 60.1507 58.3072C59.6341 59.1046 59.359 60.0343 59.3584 60.9843H62.4999C62.0607 60.2356 61.8285 59.3836 61.8271 58.5156Z" fill="#0071BC"/>
<path d="M40.8428 2.96875H40.2256V2.35156C40.2256 2.18787 40.1606 2.03089 40.0448 1.91515C39.9291 1.7994 39.7721 1.73438 39.6084 1.73438C39.4447 1.73438 39.2877 1.7994 39.172 1.91515C39.0562 2.03089 38.9912 2.18787 38.9912 2.35156V2.96875H38.374C38.2103 2.96875 38.0534 3.03378 37.9376 3.14952C37.8219 3.26527 37.7568 3.42225 37.7568 3.58594C37.7568 3.74963 37.8219 3.90661 37.9376 4.02235C38.0534 4.1381 38.2103 4.20312 38.374 4.20312H38.9912V4.82031C38.9912 4.984 39.0562 5.14098 39.172 5.25673C39.2877 5.37247 39.4447 5.4375 39.6084 5.4375C39.7721 5.4375 39.9291 5.37247 40.0448 5.25673C40.1606 5.14098 40.2256 4.984 40.2256 4.82031V4.20312H40.8428C41.0065 4.20312 41.1634 4.1381 41.2792 4.02235C41.3949 3.90661 41.46 3.74963 41.46 3.58594C41.46 3.42225 41.3949 3.26527 41.2792 3.14952C41.1634 3.03378 41.0065 2.96875 40.8428 2.96875Z" fill="#0071BC"/>
<path d="M51.9521 10.375H51.335V9.75781C51.335 9.59412 51.2699 9.43714 51.1542 9.3214C51.0384 9.20565 50.8815 9.14062 50.7178 9.14062C50.5541 9.14062 50.3971 9.20565 50.2814 9.3214C50.1656 9.43714 50.1006 9.59412 50.1006 9.75781V10.375H49.4834C49.3197 10.375 49.1627 10.44 49.047 10.5558C48.9312 10.6715 48.8662 10.8285 48.8662 10.9922C48.8662 11.1559 48.9312 11.3129 49.047 11.4286C49.1627 11.5444 49.3197 11.6094 49.4834 11.6094H50.1006V12.2266C50.1006 12.3903 50.1656 12.5472 50.2814 12.663C50.3971 12.7787 50.5541 12.8438 50.7178 12.8438C50.8815 12.8438 51.0384 12.7787 51.1542 12.663C51.2699 12.5472 51.335 12.3903 51.335 12.2266V11.6094H51.9521C52.1158 11.6094 52.2728 11.5444 52.3886 11.4286C52.5043 11.3129 52.5693 11.1559 52.5693 10.9922C52.5693 10.8285 52.5043 10.6715 52.3886 10.5558C52.2728 10.44 52.1158 10.375 51.9521 10.375Z" fill="#0071BC"/>
<path d="M65.5303 53.5781H64.9131V52.9609C64.9131 52.7972 64.8481 52.6403 64.7323 52.5245C64.6166 52.4088 64.4596 52.3438 64.2959 52.3438C64.1322 52.3438 63.9752 52.4088 63.8595 52.5245C63.7437 52.6403 63.6787 52.7972 63.6787 52.9609V53.5781H63.0615C62.8978 53.5781 62.7409 53.6431 62.6251 53.7589C62.5094 53.8746 62.4443 54.0316 62.4443 54.1953C62.4443 54.359 62.5094 54.516 62.6251 54.6317C62.7409 54.7475 62.8978 54.8125 63.0615 54.8125H63.6787V55.4297C63.6787 55.5934 63.7437 55.7504 63.8595 55.8661C63.9752 55.9819 64.1322 56.0469 64.2959 56.0469C64.4596 56.0469 64.6166 55.9819 64.7323 55.8661C64.8481 55.7504 64.9131 55.5934 64.9131 55.4297V54.8125H65.5303C65.694 54.8125 65.8509 54.7475 65.9667 54.6317C66.0824 54.516 66.1475 54.359 66.1475 54.1953C66.1475 54.0316 66.0824 53.8746 65.9667 53.7589C65.8509 53.6431 65.694 53.5781 65.5303 53.5781Z" fill="#0071BC"/>
<path d="M9.26256 52.061L8.87249 52.319L8.62562 51.9326C8.59309 51.8792 8.55009 51.8328 8.49919 51.7964C8.4483 51.76 8.39056 51.7342 8.32946 51.7207C8.26835 51.7072 8.20514 51.7061 8.14363 51.7177C8.08212 51.7292 8.02357 51.753 7.97151 51.7878C7.91945 51.8225 7.87495 51.8674 7.84069 51.9198C7.80643 51.9722 7.78312 52.0309 7.77215 52.0925C7.76119 52.1542 7.7628 52.2173 7.77689 52.2783C7.79098 52.3393 7.81725 52.3968 7.85414 52.4474L8.11212 52.8325L7.72576 53.0892C7.62903 53.1598 7.56331 53.265 7.54234 53.3829C7.52136 53.5008 7.54675 53.6222 7.6132 53.7218C7.67965 53.8214 7.78203 53.8915 7.89892 53.9174C8.01582 53.9432 8.1382 53.923 8.2405 53.8607L8.62562 53.6028L8.88237 53.9891C8.95293 54.0858 9.05814 54.1516 9.17602 54.1725C9.2939 54.1935 9.41533 54.1681 9.51493 54.1017C9.61452 54.0352 9.68459 53.9328 9.71048 53.8159C9.73637 53.699 9.71608 53.5767 9.65385 53.4744L9.39093 53.0843L9.77729 52.8276C9.83076 52.795 9.8771 52.752 9.91352 52.7011C9.94994 52.6502 9.97569 52.5925 9.98922 52.5314C10.0028 52.4703 10.0038 52.4071 9.99226 52.3456C9.98074 52.284 9.95689 52.2255 9.92216 52.1734C9.88742 52.1214 9.84252 52.0769 9.79014 52.0426C9.73777 52.0084 9.679 51.9851 9.61739 51.9741C9.55577 51.9631 9.49257 51.9647 9.4316 51.9788C9.37062 51.9929 9.31312 52.0192 9.26256 52.0561V52.061Z" fill="#0071BC"/>
<path d="M29.7334 10.375H29.1162V9.75781C29.1162 9.59412 29.0512 9.43714 28.9354 9.3214C28.8197 9.20565 28.6627 9.14062 28.499 9.14062C28.3353 9.14062 28.1784 9.20565 28.0626 9.3214C27.9469 9.43714 27.8818 9.59412 27.8818 9.75781V10.375H27.2646C27.101 10.375 26.944 10.44 26.8282 10.5558C26.7125 10.6715 26.6475 10.8285 26.6475 10.9922C26.6475 11.1559 26.7125 11.3129 26.8282 11.4286C26.944 11.5444 27.101 11.6094 27.2646 11.6094H27.8818V12.2266C27.8818 12.3903 27.9469 12.5472 28.0626 12.663C28.1784 12.7787 28.3353 12.8438 28.499 12.8438C28.6627 12.8438 28.8197 12.7787 28.9354 12.663C29.0512 12.5472 29.1162 12.3903 29.1162 12.2266V11.6094H29.7334C29.8971 11.6094 30.0541 11.5444 30.1698 11.4286C30.2856 11.3129 30.3506 11.1559 30.3506 10.9922C30.3506 10.8285 30.2856 10.6715 30.1698 10.5558C30.0541 10.44 29.8971 10.375 29.7334 10.375Z" fill="#0071BC"/>
<path d="M40.8428 64.6874H41.1415C41.0884 64.2258 41.0378 63.8061 40.9909 63.453C40.9045 62.6877 40.8428 62.2187 40.8428 62.2187L40.7934 62.1816C40.4231 62.6137 40.0157 63.0457 39.6084 63.453C39.2011 63.0457 38.7937 62.6137 38.4234 62.1816L38.374 62.2187C38.374 62.2187 38.3123 62.6877 38.2259 63.453C38.1271 64.1937 38.0161 65.2182 37.8803 66.3415C37.5346 69.3534 37.1396 73.1552 37.1396 74.5624L39.6084 78.2655V65.9218C39.6084 65.5944 39.7384 65.2804 39.9699 65.049C40.2014 64.8175 40.5154 64.6874 40.8428 64.6874Z" fill="#0071BC"/>
<path d="M35.9053 65.3306C35.9061 65.5108 35.867 65.6889 35.7908 65.8521C35.7146 66.0154 35.6032 66.1598 35.4646 66.2749C34.2537 67.2859 30.9678 70.3064 30.9678 73.3281C30.9225 74.2574 31.2482 75.1666 31.8732 75.8557C32.4982 76.5448 33.3714 76.9575 34.3006 77.0029C34.424 77.009 34.5475 77.0312 34.6709 77.0312C34.0923 75.859 33.677 74.6131 33.4365 73.3281L34.6709 72.0938C34.6709 72.0938 33.9797 72.0938 33.9797 70.8594C33.9797 69.8842 36.7447 67.3538 37.8803 66.3416C38.0161 65.2183 38.1272 64.1938 38.2259 63.4531C37.4093 63.5439 36.6197 63.8001 35.9053 64.2061V65.3306Z" fill="#0071BC"/>
<path d="M48.2491 73.3281C48.2491 70.3064 44.9632 67.2797 43.7523 66.2749C43.6137 66.1598 43.5023 66.0154 43.4261 65.8521C43.3499 65.6889 43.3108 65.5108 43.3116 65.3306V64.2061C42.5972 63.8001 41.8076 63.5439 40.991 63.4531C41.0897 64.1938 41.2008 65.2183 41.3366 66.3416C42.4722 67.3538 45.2372 69.8842 45.2372 70.8594C45.2372 72.0938 44.546 72.0938 44.546 72.0938L45.7803 73.3281C45.5398 74.6131 45.1245 75.859 44.546 77.0312C44.6694 77.0312 44.7928 77.009 44.9163 77.0029C45.8455 76.9575 46.7187 76.5448 47.3437 75.8557C47.9687 75.1666 48.2944 74.2574 48.2491 73.3281Z" fill="#0071BC"/>
<path d="M33.4364 54.8125C32.7822 54.8105 32.1554 54.5498 31.6929 54.0873C31.2303 53.6247 30.9696 52.9979 30.9676 52.3438C29.4649 52.3644 27.983 52.6982 26.6165 53.3238C26.7618 53.9053 27.0428 54.444 27.4366 54.8959C27.8303 55.3477 28.3255 55.6999 28.8815 55.9234C29.1371 56.0137 29.3574 56.1828 29.5105 56.4065C29.6636 56.6302 29.7416 56.8968 29.7333 57.1677V60.9844C29.7333 60.9844 30.9676 63.4531 33.4364 60.9844C33.4364 60.9844 29.7333 54.8125 33.4364 54.8125Z" fill="#0071BC"/>
<path d="M50.3351 55.9234C50.8913 55.6998 51.3866 55.3474 51.7803 54.8953C52.1741 54.4433 52.455 53.9043 52.6002 53.3226C51.2336 52.6974 49.7517 52.3641 48.249 52.3438C48.2471 52.9979 47.9863 53.6247 47.5238 54.0873C47.0612 54.5498 46.4344 54.8105 45.7803 54.8125C49.4834 54.8125 45.7803 60.9844 45.7803 60.9844C48.249 63.4531 49.4834 60.9844 49.4834 60.9844V57.1677C49.475 56.8968 49.553 56.6302 49.7061 56.4065C49.8592 56.1828 50.0795 56.0137 50.3351 55.9234Z" fill="#0071BC"/>
<path d="M47.0146 51.1094C43.7409 51.1094 40.6012 49.8089 38.2863 47.494C35.9714 45.1791 34.6709 42.0394 34.6709 38.7656V35.0625H30.9678V52.3438C30.9697 52.9979 31.2305 53.6247 31.693 54.0873C32.1556 54.5498 32.7824 54.8105 33.4365 54.8125H35.0906C35.7392 54.812 36.3815 54.9393 36.9809 55.1871C37.5803 55.4349 38.125 55.7983 38.5839 56.2567L39.6084 57.2812L40.6329 56.2567C41.0918 55.7983 41.6365 55.4349 42.2359 55.1871C42.8353 54.9393 43.4776 54.812 44.1262 54.8125H45.7803C46.4344 54.8105 47.0612 54.5498 47.5238 54.0873C47.9863 53.6247 48.2471 52.9979 48.249 52.3438V51.1094H47.0146Z" fill="#ED1C24"/>
<path d="M39.6084 35.0625H30.9678V52.3438C30.9697 52.9979 31.2305 53.6247 31.693 54.0873C32.1556 54.5498 32.7824 54.8105 33.4365 54.8125H35.0906C35.7392 54.812 36.3815 54.9393 36.9809 55.1871C37.5803 55.4349 38.125 55.7983 38.5839 56.2567L39.6084 57.2812L40.6329 56.2567C41.0918 55.7983 41.6365 55.4349 42.2359 55.1871C42.8353 54.9393 43.4776 54.812 44.1262 54.8125H45.7803C46.4344 54.8105 47.0612 54.5498 47.5238 54.0873C47.9863 53.6247 48.2471 52.9979 48.249 52.3438V35.0625H39.6084ZM47.6318 52.3438C47.6318 52.8348 47.4368 53.3058 47.0895 53.653C46.7423 54.0002 46.2713 54.1953 45.7803 54.1953H44.1262C42.6537 54.1982 41.2418 54.782 40.1972 55.8198L39.6084 56.4085L39.0196 55.8198C37.975 54.782 36.5631 54.1982 35.0906 54.1953H33.4365C32.9455 54.1953 32.4745 54.0002 32.1273 53.653C31.78 53.3058 31.585 52.8348 31.585 52.3438V35.6797H47.6318V52.3438Z" fill="#ED1C24"/>
<path d="M39.5343 27.5452C39.4247 25.8391 38.7745 24.2123 37.6781 22.9007C36.5817 21.589 35.0961 20.6606 33.4365 20.25L35.9053 17.7812L33.281 18.7428C32.9547 18.8749 32.6766 19.1035 32.4838 19.398C32.291 19.6925 32.1928 20.0389 32.2021 20.3907C32.1883 20.7367 32.2814 21.0786 32.4686 21.3699C32.6559 21.6612 32.9283 21.8878 33.2489 22.0189C34.9931 22.6126 35.6843 24.7172 35.9263 26.7786C36.0156 27.3253 35.9889 27.8847 35.848 28.4204C35.7071 28.9562 35.455 29.4563 35.1083 29.8883C34.7615 30.3203 34.3277 30.6745 33.8351 30.9279C33.3425 31.1814 32.8021 31.3284 32.2491 31.3594H29.7334C29.7334 32.3415 30.1235 33.2834 30.818 33.9779C31.5125 34.6724 32.4544 35.0625 33.4365 35.0625H39.6084V30.125C39.6084 29.1745 39.5837 28.3228 39.5343 27.5452Z" fill="#0071BC"/>
<path d="M43.2905 26.7786C43.5374 24.7172 44.2237 22.6126 45.9679 22.0189C46.2885 21.8878 46.5609 21.6612 46.7482 21.3699C46.9354 21.0786 47.0285 20.7367 47.0146 20.3907C47.024 20.0389 46.9258 19.6925 46.733 19.398C46.5402 19.1035 46.2621 18.8749 45.9358 18.7428L43.3115 17.7812L45.7803 20.25C44.1207 20.6606 42.6351 21.589 41.5387 22.9007C40.4423 24.2123 39.7921 25.8391 39.6825 27.5452C39.6331 28.3228 39.6084 29.1745 39.6084 30.125V35.0625H45.7803C46.7624 35.0625 47.7043 34.6724 48.3988 33.9779C49.0932 33.2834 49.4834 32.3415 49.4834 31.3594H46.9677C46.4147 31.3284 45.8743 31.1814 45.3817 30.9279C44.8891 30.6745 44.4553 30.3203 44.1085 29.8883C43.7618 29.4563 43.5097 28.9562 43.3688 28.4204C43.2279 27.8847 43.2012 27.3253 43.2905 26.7786Z" fill="#0071BC"/>
<path d="M44.0522 11.5488C42.1028 11.4571 40.1695 11.15 38.2877 10.6329C37.5371 10.4185 36.8476 10.0305 36.2748 9.50019C35.702 8.96988 35.2621 8.31218 34.9907 7.58032C34.7761 8.07229 34.6672 8.60384 34.671 9.14057C34.6893 10.4809 35.1395 11.7796 35.9547 12.8437H35.9054V14.0781H43.3116V12.8437H43.2622C43.6256 12.4817 43.8965 12.0376 44.0522 11.5488Z" fill="#0071BC"/>
<path d="M20.9459 72.743L12.6089 57.2603L13.5569 55.3643C13.7027 55.0714 13.7262 54.7326 13.6224 54.4224L12.388 50.7193C12.3368 50.5653 12.2557 50.4229 12.1494 50.3002C12.0432 50.1776 11.9138 50.077 11.7687 50.0044C11.6236 49.9317 11.4656 49.8883 11.3037 49.8767C11.1418 49.8651 10.9793 49.8855 10.8253 49.9367C10.6713 49.9879 10.5289 50.069 10.4062 50.1752C10.2835 50.2815 10.183 50.4109 10.1103 50.556C9.96355 50.8491 9.93921 51.1884 10.0427 51.4994L11.1141 54.7174L10.4549 56.0469H10.4278L20.6287 74.2613C20.8497 74.0845 21.0022 73.8362 21.0601 73.5592C21.118 73.2821 21.0776 72.9935 20.9459 72.743Z" fill="#0071BC"/>
</svg>
