<?xml version="1.0" encoding="utf-8"?><svg xmlns="http://www.w3.org/2000/svg" xmlns:xlink="http://www.w3.org/1999/xlink"><symbol viewBox="0 0 17 16" id="cart" xmlns="http://www.w3.org/2000/svg"><g clip-path="url(#aa)"><path d="M12.32 11.89a1.867 1.867 0 00-1.868 1.867c0 1.024.826 1.869 1.868 1.869a1.867 1.867 0 001.868-1.869c-.018-1.024-.844-1.868-1.868-1.868zm3.287-8.91c-.036 0-.09-.019-.143-.019H4.146l-.18-1.203A1.609 1.609 0 002.369.374H.913a.72.72 0 00-.719.719.72.72 0 00.719.718h1.455c.09 0 .162.072.18.162l1.113 7.58a1.97 1.97 0 001.94 1.671h7.473c.934 0 1.743-.664 1.94-1.58l1.168-5.839a.71.71 0 00-.575-.826zM7.74 13.668a1.857 1.857 0 00-1.851-1.779 1.879 1.879 0 00-1.797 1.94 1.841 1.841 0 001.833 1.779h.036c1.024-.054 1.832-.917 1.778-1.94z"/></g><defs><clipPath id="aa"><path transform="translate(.194)" d="M0 0h16v16H0z"/></clipPath></defs></symbol><symbol viewBox="0 0 17 17" id="catalog-burger" xmlns="http://www.w3.org/2000/svg"><path fill-rule="evenodd" clip-rule="evenodd" d="M.194 2.468c0-.553.398-1 .89-1h14.221c.491 0 .89.447.89 1 0 .552-.399 1-.89 1H1.083c-.49 0-.889-.448-.889-1zm0 6.154c0-.553.398-1 .89-1h14.221c.491 0 .89.447.89 1 0 .552-.399 1-.89 1H1.083c-.49 0-.889-.448-.889-1zm0 5.91c0-.552.398-1 .89-1h14.221c.491 0 .89.448.89 1 0 .553-.399 1-.89 1H1.083c-.49 0-.889-.447-.889-1z"/></symbol><symbol viewBox="0 0 15 26" id="chevron-left" xmlns="http://www.w3.org/2000/svg"><path d="M13.828 1.366L2.194 13l11.634 11.634"/></symbol><symbol viewBox="0 0 16 26" id="chevron-right" xmlns="http://www.w3.org/2000/svg"><path d="M1.56 1.366L13.195 13 1.561 24.634"/></symbol><symbol viewBox="0 0 17 16" id="project-des" xmlns="http://www.w3.org/2000/svg"><g clip-path="url(#ea)"><path d="M4.913 8.438H3.038a.469.469 0 00-.469.468v6.625c0 .26.21.469.47.469h1.874c.259 0 .469-.21.469-.469V8.906a.469.469 0 00-.469-.469zm5.625 0h-3.75a.469.469 0 00-.469.468v6.625c0 .26.21.469.47.469h3.75c.258 0 .468-.21.468-.469V8.906a.469.469 0 00-.469-.469zm3.75 0h-1.875a.469.469 0 00-.469.468v6.625c0 .26.21.469.47.469h1.874c.259 0 .469-.21.469-.469V8.906a.469.469 0 00-.469-.469zM6.092 1.942a.469.469 0 00-.643.16c-.213.355-.41.72-.59 1.093.136-.88.307-1.753.51-2.619a.469.469 0 10-.912-.215 35.929 35.929 0 00-.481 2.415A35.929 35.929 0 003.494.361a.469.469 0 10-.912.215c.204.866.374 1.74.511 2.62-.18-.374-.378-.739-.59-1.093a.469.469 0 10-.804.482A13.298 13.298 0 013.445 7.5h1.06c.25-1.73.85-3.418 1.747-4.915a.469.469 0 00-.16-.643zM10.07.469A.469.469 0 009.6 0H7.727a.469.469 0 00-.47.469v.743l2.813 2.813V.469zM7.257 5.35V7.5h2.15l-2.15-2.15zm2.813 0L7.256 2.539v1.486l2.812 2.813V5.351zM13.82.469a.469.469 0 00-.938 0V7.5h.937V.47z"/></g><defs><clipPath id="ea"><path transform="translate(.194)" d="M0 0h16v16H0z"/></clipPath></defs></symbol><symbol viewBox="0 0 17 16" id="user" xmlns="http://www.w3.org/2000/svg"><g clip-path="url(#fa)"><path d="M8.194 8a4 4 0 100-8 4 4 0 000 8zm5.934 4.3a6.633 6.633 0 01-11.9 0 .678.678 0 010-.6 6.63 6.63 0 013.24-3.12 5.3 5.3 0 005.446 0 6.72 6.72 0 013.214 3.12.679.679 0 010 .6z"/></g><defs><clipPath id="fa"><path transform="translate(.194)" d="M0 0h16v16H0z"/></clipPath></defs></symbol><symbol viewBox="0 0 17 17" id="zoom" xmlns="http://www.w3.org/2000/svg"><g clip-path="url(#ga)"><path d="M15.683 14.683l-3.808-3.96a6.44 6.44 0 001.516-4.153A6.467 6.467 0 006.93.11 6.467 6.467 0 00.47 6.57a6.467 6.467 0 006.46 6.46 6.391 6.391 0 003.7-1.17l3.838 3.991a.838.838 0 001.191.023.844.844 0 00.023-1.19zM6.931 1.795a4.78 4.78 0 014.775 4.775 4.78 4.78 0 01-4.775 4.774A4.78 4.78 0 012.156 6.57 4.78 4.78 0 016.93 1.795z"/></g><defs><clipPath id="ga"><path transform="translate(.194 .11)" d="M0 0h16v16H0z"/></clipPath></defs></symbol></svg>