<svg width="17" height="16" viewBox="0 0 17 16" fill="none" xmlns="http://www.w3.org/2000/svg">
<g clip-path="url(#clip0)">
<path d="M12.3199 11.8892C11.296 11.8892 10.4517 12.7155 10.4517 13.7574C10.4517 14.7813 11.278 15.6256 12.3199 15.6256C13.3438 15.6256 14.1881 14.7993 14.1881 13.7574C14.1702 12.7335 13.3438 11.8892 12.3199 11.8892Z" fill="white"/>
<path d="M15.6073 2.97914C15.5713 2.97914 15.5174 2.96118 15.4635 2.96118H4.14637L3.96673 1.7576C3.85894 0.967195 3.17632 0.37439 2.36795 0.37439H0.912887C0.517684 0.37439 0.194336 0.697738 0.194336 1.09294C0.194336 1.48814 0.517684 1.81149 0.912887 1.81149H2.36795C2.45777 1.81149 2.52963 1.88335 2.54759 1.97317L3.66134 9.55389C3.80505 10.506 4.63139 11.2245 5.60143 11.2245H13.0744C14.0085 11.2245 14.8168 10.5599 15.0144 9.64371L16.1821 3.80547C16.2539 3.42823 16.0025 3.051 15.6073 2.97914Z" fill="white"/>
<path d="M7.73913 13.6676C7.7032 12.6796 6.87687 11.8892 5.88886 11.8892C4.84696 11.9431 4.05656 12.8053 4.09249 13.8292C4.12841 14.8173 4.93678 15.6077 5.92479 15.6077H5.96072C6.98465 15.5538 7.79302 14.6915 7.73913 13.6676Z" fill="white"/>
</g>
<defs>
<clipPath id="clip0">
<rect width="16" height="16" fill="white" transform="translate(0.194336)"/>
</clipPath>
</defs>
</svg>
