<svg width="17" height="17" viewBox="0 0 17 17" fill="none" xmlns="http://www.w3.org/2000/svg">
<path fill-rule="evenodd" clip-rule="evenodd" d="M0.194336 2.46765C0.194336 1.91537 0.592305 1.46765 1.08322 1.46765H15.3054C15.7964 1.46765 16.1943 1.91537 16.1943 2.46765C16.1943 3.01994 15.7964 3.46765 15.3054 3.46765H1.08322C0.592305 3.46765 0.194336 3.01994 0.194336 2.46765Z" fill="white"/>
<path fill-rule="evenodd" clip-rule="evenodd" d="M0.194336 8.62158C0.194336 8.0693 0.592305 7.62158 1.08322 7.62158H15.3054C15.7964 7.62158 16.1943 8.0693 16.1943 8.62158C16.1943 9.17387 15.7964 9.62158 15.3054 9.62158H1.08322C0.592305 9.62158 0.194336 9.17387 0.194336 8.62158Z" fill="white"/>
<path fill-rule="evenodd" clip-rule="evenodd" d="M0.194336 14.5323C0.194336 13.9801 0.592305 13.5323 1.08322 13.5323H15.3054C15.7964 13.5323 16.1943 13.9801 16.1943 14.5323C16.1943 15.0846 15.7964 15.5323 15.3054 15.5323H1.08322C0.592305 15.5323 0.194336 15.0846 0.194336 14.5323Z" fill="white"/>
</svg>
