<svg width="17" height="16" viewBox="0 0 17 16" fill="none" xmlns="http://www.w3.org/2000/svg">
<g clip-path="url(#clip0)">
<path d="M4.91307 8.4375H3.03808C2.77921 8.4375 2.56934 8.64737 2.56934 8.90625V15.5312C2.56934 15.7901 2.77921 15.9999 3.03808 15.9999H4.91307C5.17195 15.9999 5.38182 15.7901 5.38182 15.5312V8.90625C5.38182 8.64737 5.17195 8.4375 4.91307 8.4375Z" fill="#0071BC"/>
<path d="M10.5381 8.4375H6.78808C6.52921 8.4375 6.31934 8.64737 6.31934 8.90625V15.5312C6.31934 15.7901 6.52921 15.9999 6.78808 15.9999H10.5381C10.7969 15.9999 11.0068 15.7901 11.0068 15.5312V8.90625C11.0068 8.64737 10.7969 8.4375 10.5381 8.4375Z" fill="#0071BC"/>
<path d="M14.2881 8.4375H12.4131C12.1542 8.4375 11.9443 8.64737 11.9443 8.90625V15.5312C11.9443 15.7901 12.1542 15.9999 12.4131 15.9999H14.2881C14.5469 15.9999 14.7568 15.7901 14.7568 15.5312V8.90625C14.7568 8.64737 14.5469 8.4375 14.2881 8.4375Z" fill="#0071BC"/>
<path d="M6.09179 1.94196C5.8696 1.80852 5.58179 1.88071 5.44867 2.10258C5.23586 2.45727 5.03867 2.82195 4.85805 3.19508C4.99492 2.31571 5.16555 1.44165 5.36929 0.576342C5.42867 0.324156 5.27242 0.0719695 5.02055 0.0125949C4.76836 -0.0467798 4.51617 0.109469 4.4568 0.361343C4.26899 1.16009 4.10836 1.9654 3.97555 2.77602C3.84274 1.9654 3.68212 1.16009 3.49431 0.361343C3.43493 0.109469 3.18274 -0.0467798 2.93056 0.0125949C2.67869 0.0719695 2.52244 0.324156 2.58181 0.576342C2.78556 1.44165 2.95618 2.31571 3.09306 3.19508C2.91243 2.82195 2.71525 2.45727 2.50244 2.10258C2.36931 1.88071 2.0815 1.80852 1.85931 1.94196C1.63744 2.07508 1.56557 2.36289 1.69869 2.58508C2.5965 4.08164 3.19556 5.77069 3.44524 7.50005H4.50586C4.75555 5.77069 5.35461 4.08164 6.25241 2.58508C6.38554 2.36289 6.31366 2.07508 6.09179 1.94196Z" fill="#0071BC"/>
<path d="M10.0693 0.468994C10.0693 0.210244 9.85934 0.000244141 9.60059 0.000244141H7.72559C7.46684 0.000244141 7.25684 0.210244 7.25684 0.468994V1.21212L10.0693 4.02462V0.468994Z" fill="#0071BC"/>
<path d="M7.25684 5.35071V7.50008H9.40621L7.25684 5.35071Z" fill="#0071BC"/>
<path d="M10.0693 5.35071L7.25684 2.53821V4.02446L10.0693 6.83696V5.35071Z" fill="#0071BC"/>
<path d="M13.8193 0.468992C13.8193 0.210243 13.6093 0.000244141 13.3506 0.000244141C13.0918 0.000244141 12.8818 0.210243 12.8818 0.468992V7.5002H13.8193V0.468992Z" fill="#0071BC"/>
</g>
<defs>
<clipPath id="clip0">
<rect width="16" height="16" fill="white" transform="translate(0.194336)"/>
</clipPath>
</defs>
</svg>
