<svg width="17" height="16" viewBox="0 0 17 16" fill="none" xmlns="http://www.w3.org/2000/svg">
<g clip-path="url(#clip0)">
<path d="M8.19434 8C10.4035 8 12.1943 6.20914 12.1943 4C12.1943 1.79086 10.4035 0 8.19434 0C5.9852 0 4.19434 1.79086 4.19434 4C4.19434 6.20914 5.9852 8 8.19434 8Z" fill="white"/>
<path d="M14.1277 12.2999C13.5801 13.4105 12.7326 14.3457 11.681 14.9996C10.6295 15.6535 9.41597 16.0001 8.1777 16.0001C6.93943 16.0001 5.72588 15.6535 4.67436 14.9996C3.62283 14.3457 2.77531 13.4105 2.2277 12.2999C2.18166 12.2066 2.15771 12.104 2.15771 11.9999C2.15771 11.8959 2.18166 11.7933 2.2277 11.6999C2.91114 10.3142 4.05713 9.21064 5.4677 8.57996C6.29057 9.0729 7.23181 9.33326 8.19103 9.33326C9.15026 9.33326 10.0915 9.0729 10.9144 8.57996C12.3107 9.22191 13.4449 10.3231 14.1277 11.6999C14.1737 11.7933 14.1977 11.8959 14.1977 11.9999C14.1977 12.104 14.1737 12.2066 14.1277 12.2999Z" fill="white"/>
</g>
<defs>
<clipPath id="clip0">
<rect width="16" height="16" fill="white" transform="translate(0.194336)"/>
</clipPath>
</defs>
</svg>
