<svg width="17" height="17" viewBox="0 0 17 17" fill="none" xmlns="http://www.w3.org/2000/svg">
<g opacity="0.5" clip-path="url(#clip0)">
<path d="M15.6831 14.6832L11.8751 10.7227C12.8542 9.55875 13.3907 8.09429 13.3907 6.56974C13.3907 3.00775 10.4927 0.109741 6.9307 0.109741C3.36871 0.109741 0.470703 3.00775 0.470703 6.56974C0.470703 10.1317 3.36871 13.0297 6.9307 13.0297C8.26792 13.0297 9.54222 12.6264 10.6317 11.8608L14.4687 15.8513C14.629 16.0179 14.8448 16.1097 15.0759 16.1097C15.2947 16.1097 15.5023 16.0263 15.6598 15.8747C15.9946 15.5525 16.0053 15.0183 15.6831 14.6832ZM6.9307 1.79496C9.56357 1.79496 11.7055 3.93687 11.7055 6.56974C11.7055 9.2026 9.56357 11.3445 6.9307 11.3445C4.29783 11.3445 2.15592 9.2026 2.15592 6.56974C2.15592 3.93687 4.29783 1.79496 6.9307 1.79496Z" fill="black"/>
</g>
<defs>
<clipPath id="clip0">
<rect width="16" height="16" fill="white" transform="translate(0.194336 0.109741)"/>
</clipPath>
</defs>
</svg>
